/* XPM */
static char *_fed298c12b24396e187a6af77cb8615VEnALWTfCF7a07ts[] = {
/* columns rows colors chars-per-pixel */
"64 64 26 1 ",
"  c #2A2D33",
". c #2B2E34",
"X c #2E3138",
"o c #2C2F35",
"O c #2C2F36",
"+ c #2A2D34",
"@ c #32363D",
"# c #30343B",
"$ c #2B2E35",
"% c #30333A",
"& c #2E3137",
"* c #381E23",
"= c #5B2E4A",
"- c #CD66B1",
"; c #FECEC7",
": c #192636",
"> c #2F333A",
", c #FEABE1",
"< c #2F3239",
"1 c #34383F",
"2 c #2D3037",
"3 c #2C3036",
"4 c #0A6071",
"5 c #33373F",
"6 c #2D3036",
"7 c #2B2F35",
/* pixels */
"                                                                ",
"                                                                ",
"                  .X                                            ",
"                  .o                                            ",
"                                                                ",
"                                                                ",
"                                                                ",
"                                                                ",
"                                                                ",
"                                                                ",
"                                                                ",
"                                             O.                 ",
"                     +                      o@#$                ",
"                                            .%&+                ",
"                                             .                  ",
"                                                                ",
"                           **===                                ",
"                  ***   **======== *                            ",
"                 ******==---==-=====                            ",
"                 ****====-----=-====**                          ",
"       .         ***--==-;;;;;;;;-==***   :                     ",
"      O>.         =---=-;;,------;;-**** :                      ",
"     .<12         *--=,,-,-,-------;;-**:                       ",
"      .2          ===,----,----------;--==                      ",
"                 -==-,---------------;=**                   3.  ",
"                -===;----------------,;**                   &.  ",
"               =-==-;;-------------,,,,=*--                     ",
"              = ===;;;;---------,-,,,,,;**-                     ",
"               ===;;,,----------,-,,,,,;=*-=                    ",
"                ==;;,-------------,,,-,;==-=                    ",
"                -;;;------------------,;;;;;;=                  ",
"              =;;;;;-------------------;===;                    ",
"                ===;-----;-------------;===;                    ",
"               ====---;;;-;-----------;-==--                    ",
"               =====;-;;;;------------;===;-                    ",
"               ==-==-;;;;;----------;;-===;                     ",
"                ==---;,,,,,-,--------;====-                     ",
"                 ===--;;,,,,-,-----;;====-                      ",
"                  ==----;;,,,----;;-=====-                      ",
"                    ---==-;;;;;;;-======-                       ",
"                     -======----======= 4                       ",
"  2O                 :--============ =   :                      ",
"  o.   .                --======= * =     :                     ",
"                           ****    * *     :        +           ",
"                          4 **                     .o           ",
"                                                    .           ",
"                                                                ",
"                                                                ",
"                                                                ",
"                                                                ",
"                                                                ",
"                   +                                            ",
"                   o$           .O                              ",
"                   .           .<52                             ",
"                                6#.                             ",
"                                 .                              ",
"                                                                ",
"                                                                ",
"                                                                ",
"                                                                ",
"                                          7X                    ",
"                                          .O                    ",
"                                                                ",
"                                                                "
};
