/* XPM */
static char *_5ed0edca27c4397ef8e26d3860f7ecc9pvfDXbxtReWivTS[] = {
/* columns rows colors chars-per-pixel */
"64 64 24 1 ",
"  c #2A2D33",
". c #2B2E34",
"X c #2E3138",
"o c #2C2F35",
"O c #2C2F36",
"+ c #2A2D34",
"@ c #32363D",
"# c #30343B",
"$ c #2B2E35",
"% c #30333A",
"& c #2E3137",
"* c #45242C",
"= c #89362E",
"- c #FECEC7",
"; c #F87D74",
": c #2F333A",
"> c #F9A47B",
", c #2F3239",
"< c #34383F",
"1 c #2D3037",
"2 c #2C3036",
"3 c #33373F",
"4 c #2D3036",
"5 c #2B2F35",
/* pixels */
"                                                                ",
"                                                                ",
"                  .X                                            ",
"                  .o                                            ",
"                                                                ",
"                                                                ",
"                                                                ",
"                                                                ",
"                                                                ",
"                                                                ",
"                                                                ",
"                                             O.                 ",
"                     +                      o@#$                ",
"                                            .%&+                ",
"                                             .                  ",
"                                                                ",
"                            **===                               ",
"                   * *   **======== =                           ",
"                  * * = =============                           ",
"                   = =====-;=;;======= =                        ",
"       .          * ;;;==;--------;==;;;=  =                    ",
"      O:.          =;;;=;--;;;;;>>--;;;;;=; =                   ",
"     .,<1           ;;=>>;;;;>;;;>;>--;;;;*;                    ",
"      .1           ===>;;;;;;;;;;;;;>>-;;;;*=                   ",
"                  ===;>;;;;;;>;;;;>;>>-;;;;;                2.  ",
"                 *===-;;;;>>>--;;>>>;>>-;;;;                &.  ",
"                 *==;--;;>>>>>;;;>>>;>>-;;;*                    ",
"                 ===----;>>>>>;;>;>>;;;>-;;=                    ",
"                *==;->>;;;;;;;;;;>;;;;;;-;==*                   ",
"               **==;->>;;;;;;;;;;;;;;>;;-===*                   ",
"               **==;->;>;;>>;;;;;;;>>;>;-===*                   ",
"                *===-;>;;;;>;;;;;;>>>>;;-===                    ",
"                 ===-;;;;;>;;;;;;>>>>--;-;==                    ",
"                 *==;-;;;;;;;-;-->>>>---;;=*                    ",
"                 *===-;;;;;;;;;;->>>----;;=                     ",
"                  ===;-;;;;;;;;;;;-----;;;                      ",
"                  *=;;->;;;;;;;;;;;;;;>;;=                      ",
"                   =;;;-->>>>>>;;;;;>>=;;                       ",
"                    ;;;;;-->>>>>;;>>;====                       ",
"                   = ;;;==;-------;=====                        ",
"                    ; =======;=;;;==;=                          ",
"  1O               = =  ========;;;;= =                         ",
"  o.   .                   =======   =                          ",
"                                                    +           ",
"                                                   .o           ",
"                                                    .           ",
"                                                                ",
"                                                                ",
"                                                                ",
"                                                                ",
"                                                                ",
"                   +                                            ",
"                   o$           .O                              ",
"                   .           .,31                             ",
"                                4#.                             ",
"                                 .                              ",
"                                                                ",
"                                                                ",
"                                                                ",
"                                                                ",
"                                          5X                    ",
"                                          .O                    ",
"                                                                ",
"                                                                "
};
