/* XPM */
static char *_c1825b923614f6fdbc819065c6858019d4EgDjWaWHFLUlE[] = {
/* columns rows colors chars-per-pixel */
"64 64 26 1 ",
"  c #2A2D33",
". c #2B2E34",
"X c #2E3138",
"o c #2C2F35",
"O c #2C2F36",
"+ c #2A2D34",
"@ c #32363D",
"# c #30343B",
"$ c #2B2E35",
"% c #30333A",
"& c #2E3137",
"* c #2A2E34",
"= c #2B2F35",
"- c black",
"; c #89362E",
": c #F87D74",
"> c #2F333A",
", c #2F3239",
"< c #34383F",
"1 c #2D3037",
"2 c #FECEC7",
"3 c #F9A47B",
"4 c #2C3036",
"5 c #45242C",
"6 c #33373F",
"7 c #2D3036",
/* pixels */
"                                                                ",
"                                                                ",
"                  .X                                            ",
"                  .o                                            ",
"                                                                ",
"                                                                ",
"                                                                ",
"                                                                ",
"                                                                ",
"                                                                ",
"                                                                ",
"                                             O.                 ",
"                     +                      o@#$                ",
"                                            .%&+                ",
"                                             .                  ",
"                                                                ",
"                                                                ",
"                             *=                           -     ",
"                             .o                                 ",
"                       ;   ;;;;;;;                              ",
"       .              ; ;::::;;;;;;;;  ; ;                      ",
"      O>.              ;:;;:::;:;;;;;;; :                       ",
"     .,<1            ;;;;;:2222222:;;::: ;                      ",
"      .1            ;;;;:33::3333322:::::                       ",
"                    ::;33:::::33333322:::;                  4.  ",
"                   ;::3::::::::::::::32::;5                 &.  ",
"                   :::22222:::::::::::2:;;;                     ",
"                  ;::22223332::::::::::2;;;5                    ",
"                 5;::222333322:2:::::::2:;;5                    ",
"                 ;;:2:223333::::::3:::::2;;;                    ",
"                 ;;;2::3333::::::3::::3:2;;;5                   ",
"                5;;;2:3:33:::::::33::3:32:;;55                  ",
"                5;;;2::3::::::::::::::332:;;55                  ",
"                5;;:2::::::3::::::::::332:;;5                   ",
"                 ;::23:::33:3::33333:2222;;;                    ",
"                 5:::233:333:::33333::22:;;5                    ",
"                 ::::233:333::22333::::2;;;5                    ",
"                 :::::233:3::::3::::::3:;;;                     ",
"                ;5::::233:::::::::::::3;;;                      ",
"                 :5::::223:3:::3::::33;::                       ",
"                ; :;:::::2233:::::22:;:::;                      ",
"  1O             ;  ;:::;;:22222222:;;::: 5                     ",
"  o.   .             ; ;;;;;;;::;:2;;;;; ;                      ",
"                        ;;;;;;;;;;;;; ; 5 5         +           ",
"                        ; ;;;;;;;;55   5 5         .o           ",
"                            ;;;55                   .           ",
"                                                                ",
"                                                                ",
"                                                                ",
"                                                                ",
"                                                                ",
"                   +                                            ",
"                   o$           .O                              ",
"                   .           .,61                             ",
"                                7#.                             ",
"                                 .                              ",
"                                                                ",
"                                                                ",
"                                                                ",
"                                                                ",
"                                          =X                    ",
"                                          .O                    ",
"                                                                ",
"                                                                "
};
