/* XPM */
static char *_12d87f16ce94a60fff11279ab89123arS89W6qjAGTiOYfP[] = {
/* columns rows colors chars-per-pixel */
"64 64 26 1 ",
"  c #2A2D33",
". c #2B2E34",
"X c #2E3138",
"o c #2C2F35",
"O c #2C2F36",
"+ c #2A2D34",
"@ c #32363D",
"# c #30343B",
"$ c #2B2E35",
"% c #30333A",
"& c #2E3137",
"* c #2A2E34",
"= c #2B2F35",
"- c #452F24",
"; c #896B2E",
": c #2F333A",
"> c #FFF5E4",
", c #DFD672",
"< c #2F3239",
"1 c #34383F",
"2 c #2D3037",
"3 c #EDFCA0",
"4 c #2C3036",
"5 c #2E8189",
"6 c #33373F",
"7 c #2D3036",
/* pixels */
"                                                                ",
"                                                                ",
"                  .X                                            ",
"                  .o                                            ",
"                                                                ",
"                                                                ",
"                                                                ",
"                                                                ",
"                                                                ",
"                                                                ",
"                                                                ",
"                                             O.                 ",
"                     +                      o@#$                ",
"                                            .%&+                ",
"                                             .                  ",
"                                                                ",
"                                                                ",
"                             *=                                 ",
"                   -       --;;;                                ",
"                  - -  --;;;;;;;;;---- -                        ",
"       .           -;;;;;;;;;;;;;;;;--- -                       ",
"      O:.           ;;;;;>,;,,;;;;;;;-;-                        ",
"     .<12        - ,,,;;,>>>>>>>>,;;,,,;;                       ",
"      .2        - ;,,,;,>>,,,,,,,>>,,,,,;;                      ",
"                 ;,,,;,3,,,,,,,,,,,>>,,,,;                  4.  ",
"                 ;,,;,,,,,,,,,,,,,,,,>,,,,-                 &.  ",
"                 ;;;,3,,,,,,,,>>,,,,,>,,,,,-                    ",
"                -;;;>,,,,,,,>>,,33,,,3>,,,,--                   ",
"                -;;,>>,,,,,,,,,,,,,,,3>,,,;;-                   ",
"                ;;;>>>>>>>>333,,,,,,333>,,;,;                   ",
"               -;;,>>>333,,,,,,,,,,,,,3>,;,;;                   ",
"              --;;,>>>33,,,,,,,,,,,,,,,>;,;,;                   ",
"             5--;,,>>>3,,,,,,,,,,,,,,3,>;;;;;                   ",
"              --;,,>>3,,,,,3,,,333333,3>;;;;;                   ",
"              --;,,>,,,,333,3,33333333,>,;;;;                   ",
"               --,,,>,,333333333333333>,,;;-;                   ",
"               --;,,>,,33333333>>3333>>,,;  ;                   ",
"               --,;,,>,,3333333>>3333>,,,  -                    ",
"               --;,,,>,,,3333333>3333,,,;  -                    ",
"                -;;,,,>>,,3333,>,,,,,;,,  -                     ",
"               - ;;,,,,,>>,,,,,,,,,,;;;;                        ",
"  2O            --;;,,,;;,>>>>>>>,;;;;; ;                       ",
"  o.   .         -;;;;;,,;;;,,,,,;,;;; ;                        ",
"                  ;;;;;;;;;;;,,,,,;;;;- -           +           ",
"                   -;;;;;;;;;;;;;;;;;  -           .o           ",
"                     -;;;;;;;;; ; -                 .           ",
"                         ; ;;; ; -                              ",
"                                                                ",
"                                                                ",
"                                                                ",
"                                                                ",
"                   +                                            ",
"                   o$           .O                              ",
"                   .           .<62                             ",
"                                7#.                             ",
"                                 .                              ",
"                                                                ",
"                                                                ",
"                                                                ",
"                                                                ",
"                                          =X                    ",
"                                          .O                    ",
"                                                                ",
"                                                                "
};
