/* XPM */
static char *fb53376ad59345cda719df36adfdc9e7ODovbvI3E2yDYQcG[] = {
/* columns rows colors chars-per-pixel */
"64 64 200 2 ",
"   c #0C2535",
".  c #0E2837",
"X  c #0F2A38",
"o  c #132734",
"O  c #182733",
"+  c #142935",
"@  c #1B2934",
"#  c #112D3A",
"$  c #192E39",
"%  c #14333D",
"&  c #1B323C",
"*  c #19393B",
"=  c #242B33",
"-  c #2A2D33",
";  c #273036",
":  c #2B3135",
">  c #22353D",
",  c #2B3339",
"<  c #303A37",
"1  c #163640",
"2  c #1A3740",
"3  c #173942",
"4  c #1A3D44",
"5  c #1B3F48",
"6  c #243D43",
"7  c #2B3E43",
"8  c #1B4147",
"9  c #1C4348",
"0  c #1F484C",
"q  c #224346",
"w  c #2D4346",
"e  c #234549",
"r  c #2B4649",
"t  c #224A4D",
"y  c #2D494A",
"u  c #224947",
"i  c #3E4747",
"p  c #344A4A",
"a  c #364849",
"s  c #26514B",
"d  c #2D5C4C",
"f  c #2B564A",
"g  c #3A564A",
"h  c #244C52",
"j  c #294D51",
"k  c #265155",
"l  c #295555",
"z  c #2E5C53",
"x  c #295459",
"c  c #2D5A5D",
"v  c #265358",
"b  c #315F56",
"n  c #315C5C",
"m  c #3B5D5F",
"M  c #385555",
"N  c #356849",
"B  c #3C724D",
"V  c #3F784F",
"C  c #326255",
"Z  c #396C53",
"A  c #38675B",
"S  c #3D745C",
"D  c #3D7451",
"F  c #2F5C61",
"G  c #305E62",
"H  c #385F62",
"J  c #2F6064",
"K  c #346466",
"L  c #3A6262",
"P  c #376965",
"I  c #396D63",
"U  c #346568",
"Y  c #3C6C6B",
"T  c #376869",
"R  c #3D7262",
"E  c #3E716C",
"W  c #434D4B",
"Q  c #4A4F4B",
"!  c #46514E",
"~  c #4D524D",
"^  c #47584D",
"/  c #51534D",
"(  c #515B4D",
")  c #4B5651",
"_  c #455954",
"`  c #485B55",
"'  c #445B59",
"]  c #475552",
"[  c #505550",
"{  c #51624E",
"}  c #526B4E",
"|  c #51724E",
" . c #507F4D",
".. c #486055",
"X. c #586955",
"o. c #427253",
"O. c #40775E",
"+. c #427B5C",
"@. c #4A725F",
"#. c #517A51",
"$. c #416365",
"%. c #427A61",
"&. c #41736C",
"*. c #467A6A",
"=. c #487564",
"-. c #467C70",
";. c #487F72",
":. c #537B78",
">. c #607D70",
",. c #47844E",
"<. c #52834F",
"1. c #528C4F",
"2. c #51944F",
"3. c #4C8B54",
"4. c #46805D",
"5. c #48855B",
"6. c #4E8C5A",
"7. c #498255",
"8. c #528C51",
"9. c #538B59",
"0. c #4F9150",
"q. c #529451",
"w. c #559952",
"e. c #589D57",
"r. c #579B5B",
"t. c #5A9E59",
"y. c #55955A",
"u. c #5EA45D",
"i. c #60A65F",
"p. c #4F896C",
"a. c #4B8466",
"s. c #528B69",
"d. c #559565",
"f. c #59966D",
"g. c #4A8272",
"h. c #5B8E71",
"j. c #5A9778",
"k. c #5D9D76",
"l. c #6E9A6E",
"z. c #649A7F",
"x. c #649272",
"c. c #5FA363",
"v. c #5FA071",
"b. c #64AA63",
"n. c #64A96B",
"m. c #6AB26B",
"M. c #69AB77",
"N. c #75AE70",
"B. c #6EB477",
"V. c #76BC7B",
"C. c #79C47B",
"Z. c #86B37D",
"A. c #678D84",
"S. c #7D9894",
"D. c #79B484",
"F. c #7FCB82",
"G. c #7BC486",
"H. c #849F96",
"J. c #83AC80",
"K. c #86BC89",
"L. c #87A997",
"P. c #9DBCA6",
"I. c #ABB9B0",
"U. c #84CE8F",
"Y. c #84CA86",
"T. c #89D78E",
"R. c #87D58B",
"E. c #8EDC93",
"W. c #85D092",
"Q. c #92DE95",
"!. c #92D59A",
"~. c #ADCA9E",
"^. c #93E197",
"/. c #96E69B",
"(. c #97E89C",
"). c #99E99D",
"_. c #9BE79E",
"`. c #9DCCA0",
"'. c #ACD7A8",
"]. c #BBCBB0",
"[. c #A5C9A2",
"{. c #9DE9A0",
"}. c #A2E8A3",
"|. c #ACEAAB",
" X c #B1EAAE",
".X c #BEECB7",
"XX c #CEDABA",
"oX c #C5EEBC",
"OX c #C9E9BF",
"+X c #D1D4C8",
"@X c #CCEEC0",
"#X c #DAECC8",
"$X c #D2EFC5",
"%X c #DEF0CD",
"&X c #D7F0C8",
"*X c #E0E4CA",
"=X c #E4F2D2",
"-X c #EBF2D6",
";X c #F5F3DD",
":X c #FEF5E4",
/* pixels */
"- - - - - - - - : - - - - - - - - - - - - - - - - - - - - - - - - - - - - - - - - - - - - - - - - - - - - - - - - - - - - - - - ",
"- - - - - - - - - - - - - - - - - - - - - - - - - - - - - - - - - - - - - - - - - - - - - - - - - - - - - - - - - - - - - - - - ",
"- - - - - - - : - - - - - - - - - - - , - - - - - - - - - - - = - - - - - - - - - - - - - - - - - - - - - - - - - - - - - - - - ",
"- - = @ @ O O = - - - - - - - - - @ O o O @ - - = O . o             + = - - - - - - - = - = - - - - - - = = = - - - - - - - - - ",
"- - = O o   o o @ - - - - - - - = @ o     + = @ O         .             O O @ = - = O       O = - - - - = o o O = = = - - - - - ",
"- - =   + + *   O - - - - - - - = o         + +         # 1 % % #     *   o + @ = o           # = - - - =         o O - - - - - ",
"- - - O O       @ - - = @ = - =                       . 1 5 9 5 8 X   .     . # 1 1 % X .   . X # % > > @ o         @ - - - - - ",
"- - - - = O   o = - - O o   o                   .   # 1 9 9 9 9 e 2 + # % 1 5 t 0 t h 8 8 4 3 2 # & e w & % . %     @ - - - - - ",
"- - - - - - = = = - - @ o         . X .     # 3 3 3 8 9 9 9 8 9 e r q 8 9 9 9 9 8 9 9 9 9 9 9 r r 9 9 r 1 X   X       O - - - - ",
"- - - - - = - - - - - =           X 1 # . . 1 8 8 9 9 8 8 9 9 9 9 9 9 9 9 9 9 9 9 9 t 9 9 9 9 8 9 9 9 9 %               @ - - - ",
"- - - = @ @ - - - : : o           . 1 % . . 1 X 4 8 9 9 9 9 8 9 9 9 9 9 9 9 9 9 9 9 9 9 9 q 9 t 9 9 e e %     + .       O = - - ",
"- - - - = @ - , : < @     % f .                 3 8 9 9 8 9 9 9 9 9 9 8 9 9 9 9 8 9 9 9 9 e 9 C 0 9 e w 2 2 4 3 X       o = - - ",
"- - - - - = - - - = o     X 2       X X         # 8 8 8 9 9 9 9 8 9 9 9 9 9 0 h k 8 9 9 9 9 9 9 q 9 9 r r r e 4       o O = - - ",
"- - - - - = O @ @ O O           . 3 9 9 1         1 9 9 9 9 9 8 9 9 9 9 9 9 9 n L 8 9 t 9 9 8 9 9 9 0 8 r y 2 %   o @ @ = - - - ",
"- - - - = @   o o o O         X 9 k v F J h #     X 3 8 9 9 9 9 9 9 0 9 9 9 9 9 9 9 9 0 9 8 9 9 8 0 8 8 9 q %     @ @ o = - - - ",
"- - - - -                   X h c F J U J U k X % 1 8 3 3 8 9 9 0 9 0 h 0 9 8 9 9 t 9 9 9 9 9 9 8 8 9 9 9 * .     o       - - - ",
"- - - - - O       % X   . X 0 K U K K K K P C 8 4 4 9 8 8 8 9 0 v 8 4 1 8 9 9 9 9 C 9 9 9 9 9 9 8 8 8 0 9 4 .           o = - - ",
"- - - - - =   . t h #   X 1 c U U K K K U R y.z 9 9 8 9 8 9 0 F F 9 # . . 4 9 9 9 e 9 8 9 9 8 9 0 8 8 8 9 1             o = - - ",
"- - - - - = O 5 c U x 9 3 4 c U K I R P K P s.c.V Z z t 0 9 h K U F 4 1 . . 1 3 2 w r e 8 9 9 8 9 9 q y * o             o = - - ",
"- - - - - - = 9 x K U K x C p.K U 5.R U U U T S a.n.v.%.A S b P K c 0 h 0 9 % % X X 1 8 9 9 8 0 9 9 7 , @ o             O - - - ",
"- - - - = O & 0 F U K U U T g.K Y j.K U K U U U K P P K K T I O.P F 0 9 9 h t 1 3 X X 8 8 8 8 k % . @ - = O o @ O o     = - - - ",
"- - - = O   X h x K K K U K K K E P.:.K K J K U K K K P K K K K U F 9 9 9 0 9 X X X X % 8 8 9 0 .   = = - = - - - O   o = = - - ",
"- - - = O   . 0 F K U P U U U Y I.:X+XL.z.s.S I K J S v.f.*.T U K J 0 9 9 k %     * . % 8 8 9 8 %   o @ - , : - - = O @ @ - - - ",
"- - - =   . # 5 x U K P P P F S.:X:X:X:X;X*X~.V.L.h.6.t.b.m.r.b 9 v v b 9 k 4     X . X 8 9 8 8 4 .   O - - - = - = - - - - - - ",
"- - = O   % 3 9 0 J U U U U F L.:X:X:X:X:X:X:X@X{.^.G.b.2.0.i.R 8 9 9 t 9 9 9 % #       X 3 8 8 X     @ - - - : - - - - - = : - ",
"- -       X 4 9 x U U K U Y :.].:X:X:X:X:X:X:X=X/./.^.C.2.2.N.z.v t 9 8 9 9 u % X X X     % 3 # . + . O = = @ @ = = - - = O - - ",
"- - .     . 4 0 K K K K U K.OX:X:X:X&X%X@X&X=X.X(./.(.F.2.2.N.!.A.U z t e e q o * . * .   X * 3 8 3 % % O O + o O o         - - ",
"- - X     . 4 0 F U P P U M.Q. XOX.X X|./.!.E.E.E.C.V.u.0.0.m./.|.Y.y.7.n e q   X   X   X % 8 9 9 8 X %         o           - - ",
"- -         # 4 h K K K K K D.{./.^.E.C.j.E K A 5.4.+.+.S d.R./.|.-X~.=.v 9 r & X .     # 3 9 9 9 8 3 4                   o - - ",
"- -           X 9 x F S S K L.|./.F.r.+.c 0 8 9 t L K K g.T.).oX-X:X:XA.t 9 9 4 % %     % 8 j 9 8 3 9 0 &                 o - - ",
"- -       X     % 4 9 3.6.M.'.}.(.C.S c 9 X 1 4 8 p m g.W.).OX:X:X:X*X>.e 9 9 4 . .     3 9 $.e r w 9 e w > % + #   . .   = - - ",
"- -               . f 2.m.).{.(.Y.6.s 8 3 X X 1 4 C +.G.)._.=X:X:X:XZ...r 9 e &         % 8 8 p / / ! 9 0 r r > @ . & @ @ = - - ",
"- -     . X %   # 3 N 2.i.T.E.l.{ a # % X   X * N q.u.E.(. X:X:X:XXX9.~ y 9 e 6 % #       % r / / / Q e 9 9 4 O - = = - = $ - - ",
"- - o   . . +   3 0 S 7.3.e.e.{ W *     . . # t y.e.m.)./.}.;X:X;XZ.<.~ e 9 9 e 4 % # + # e Q / / / ~ W p r 2 - - - - - = = - - ",
"- - O   .       4 v U K I 3.2.B +       . X 3 k 6.w.C.}.(./.OX:XXXw.{ W 9 8 9 8 4 7 W Q Q W / / / / / ~ ! r = - - : - - - - - - ",
"- - @ o         8 c K T S 3.w.B . . *   % % 4 v 3.w.Y.{././.}.#XZ.<.~ e e r 8 % w Q / / / / / ` ' ' ) r 3 3 ; - , , , - = - - - ",
"- - - @         3 F T P I 3.w.N             1 c 5.u.E./.(./.{.'.9.g e 0 9 + X 2 Q / / / / / ..I U K G 5 . # = - = = - = - - - - ",
"- - - @         4 K K U P +.1.g     . X q   . h 3.b././.(.).`.=.e 5 0 t #     & / / / / ' I S I K K F e # . . $ & o & = = - - - ",
"- - O o         9 K U K K +.#.w X       #     # D m././.(.U.A 8 9 9 0 1       $ Q / / ' K K L K K U U k 1 .   . X   .   O - - - ",
"- -           # t U K K U R o.e * . 4 %         b n./.(.(.D.5 9 9 9 9 1 . X X # W / ) K K K K P U T P 9   .             O - - - ",
"- -         X 9 F K U d.6.P d 4 %   % X         k -.U.Q.Q.[.s 9 9 9 9 8 4 % 3 3 r / ) K U K P +.z z P F #                 @ - - ",
"- -       % 3 9 G K %.b.w.B 8 8 % % % #   . X   1 F &.y.t.K.@.9 9 e r e 9 8 % 3 # 7 ] K K K S v 1 X 5 9 X                   - - ",
"- -     X * 4 0 K K I d.b.,.t 9 9 s 8 3   . *     e H I %.*.X.r 9 p i ! p p 4 * . # e n U U v X             . X           o - - ",
"- -     X % 9 9 G U K E B.2.D 8 8 3 8 %   . # # . w ` U K H ~ e e ! ~ ~ / ( ^ r 1 + t c K T e     X & . + +   X           O - - ",
"- - o   . 1 9 9 k F F c N N q . .   & 1 .   . .   i A K U o.e 9 g / ( |  .<.2.,.0 % v K U T Z #     .     X               = - - ",
"- - O O   X 8 4 & & % 3 1 O O o   @ @ + .       $ W H U U A 9 r / / / <.q.w.e.e.d 1 0 C I U I v 1 o O                     = - - ",
"- - @ O + O + + O O = = = = - = @ - = + + #     , ' U U S l 9 r / / ( q.2.m.R.Q.V.C 9 f.d.K K K c @ @ O                 o = - - ",
"- - - = = - = = = - - - - = - @   o o & X .   X W ` K U l 9 9 e Q / { q.u.T.).^.E.B.k.Q.k.K K K n ; - =                 O - - - ",
"- - - - - - - - - = - ; - - - O       X   + . & / ~ A m r e 9 9 p ~ ( 1.b.Q.G.p.E k.E.D.Y U U U c $ = O       .           @ - - ",
"- - - - - - - - - : - = - - - O       X > .   $ Q / ) ' ) M e 9 9 i ( 8.w.B.R :.U P a.%.U G U U h   O                       - - ",
"- - - - - - - - - ; - = - - @         $ _ X   # 2 p W [ / ` M 9 9 r ( 1.q.6.U &.Y x.Y U U U H F %   O                     o - - ",
"- - - - - = - - - - - - - = o . % %     X     % 1 1 q W / ~ M 9 9 p / | q.3.I U U *.T G U G h 1   O = O                 O @ - - ",
"- - - - : : - - - - - - = O o   # % .     % # X X X X % r p e 9 9 i ( } 8.3.O.U -.U K U x 1     o = = o               = - - - - ",
"- - - - - - - - - - - - = O o     .       X .       . % % 9 9 9 e ! | 0.2.3.R U Y U K K 5       O @     . +           - - - - - ",
"- - - - - - - - - - - - - @ O +                       1 4 4 4 9 p ( 7.q.6.S G G G F F v 1       @ O     . .         o - - - - - ",
"- - - - - - : - - - - - - - = =             X   X X 1 9 9 2 3 e ] ..A Z z 1 # 1 1 1 1 3 1       = O             o O @ - - - - - ",
"- - - - - - - - - - - - - - - - - o o     + * 3 # 1 4 9 9 9 e y [ ! 6 1 #     . o #             o = o           = = - - - - - - ",
"- - < : - - - - - = = - - - - - - O o     % 8 9 4 4 9 9 9 r 7 t y & .   e .   $ X X       o     O - = o       O - - - - - - - - ",
"- - : : - - - - - @ O @ - - - - - @ O   % 8 9 8 9 9 9 9 9 e X X .       # .     X $     1       = - =     O O - - - - = - - - - ",
"- - - - - - - - - = = @ - - - - - = - O   % % X X 4 9 8 1 #                 O O               o = - = O O = - = - = O O = - - - ",
"- - - - - - - - - - - - - - - - - - - @           . % X                 o O @ = = = @ $     o = - = - = = - - - - = O O = - - - ",
"- - - - - - - - - - - - - - - - - - - O   o           o             O O = - = - - - = @ o   o = - - - - = = - - - - = = = - - - ",
"- - - - - - - - - - - - - - - - = = = = O O @ = - = @ @ O           O = - , , - - - - - = O O = - - - - - = - - - - - - - - - - ",
"- - : - - - - - - - - - - - - - - - - - - - - - - - - - - - - - - - - - - - - - - - - - - - - - - - - - - - - - - - - - - - - - "
};
