/* XPM */
static char *_03f13bdd07d49348fb2e9c8b171a361ZJbDKVXmUnqSVc7w[] = {
/* columns rows colors chars-per-pixel */
"64 64 216 2 ",
"   c #0C2535",
".  c #072334",
"X  c #122635",
"o  c #1A2735",
"O  c #162835",
"+  c #1B2A34",
"@  c #182838",
"#  c #242C33",
"$  c #2A2D33",
"%  c #232939",
"&  c #2B2B39",
"*  c #202738",
"=  c #332C35",
"-  c #3B2D33",
";  c #352D3B",
":  c #3B2E3C",
">  c #2B3035",
",  c #2E3239",
"<  c #323036",
"1  c #3A3133",
"2  c #333039",
"3  c #3B303A",
"4  c #34383F",
"5  c #532D2F",
"6  c #442D33",
"7  c #4D2F32",
"8  c #422E3D",
"9  c #4B2F3E",
"0  c #552F32",
"q  c #5B2F3E",
"w  c #542E3B",
"e  c #433035",
"r  c #4B3134",
"t  c #43313C",
"y  c #4A333C",
"u  c #533134",
"i  c #5C3233",
"p  c #54333B",
"a  c #5D323D",
"s  c #68322F",
"d  c #7B342F",
"f  c #76332F",
"g  c #602F3A",
"h  c #643233",
"j  c #6C3333",
"k  c #63313C",
"l  c #6D313C",
"z  c #753335",
"x  c #7D3435",
"c  c #73323C",
"v  c #7A343B",
"b  c #7C3A3E",
"n  c #77493E",
"m  c #3A2B41",
"M  c #442F41",
"N  c #4B2F43",
"B  c #532E45",
"V  c #5A2F45",
"C  c #572E48",
"Z  c #5B2E4A",
"A  c #433140",
"S  c #4A3340",
"D  c #513442",
"F  c #5C3243",
"G  c #622F45",
"H  c #653143",
"J  c #6B3242",
"K  c #64314A",
"L  c #603A40",
"P  c #7C3745",
"I  c #72344B",
"U  c #773744",
"Y  c #4C4643",
"T  c #4A4746",
"R  c #52545C",
"E  c #655350",
"W  c #6C4942",
"Q  c #87362E",
"!  c #8A362E",
"~  c #833532",
"^  c #8B3632",
"/  c #8D3933",
"(  c #81363A",
")  c #84393E",
"_  c #8C3A3B",
"`  c #843833",
"'  c #943A35",
"]  c #953C3B",
"[  c #9C3D3B",
"{  c #983C37",
"}  c #A23F3E",
"|  c #994637",
" . c #A3423E",
".. c #A34C3E",
"X. c #A6513E",
"o. c #833B44",
"O. c #8D3A42",
"+. c #8B3B4A",
"@. c #933D45",
"#. c #9C3E42",
"$. c #923D4B",
"%. c #9B3F4A",
"&. c #8C3D53",
"*. c #943E52",
"=. c #834E40",
"-. c #8B454B",
";. c #9B404C",
":. c #964447",
">. c #8B5041",
",. c #985247",
"<. c #804150",
"1. c #995F50",
"2. c #A54142",
"3. c #AB4345",
"4. c #AA4C43",
"5. c #AD4A4E",
"6. c #A5444B",
"7. c #B3464A",
"8. c #BA474E",
"9. c #B54A4B",
"0. c #B9494E",
"q. c #B04547",
"w. c #BC5B4D",
"e. c #B75A4B",
"r. c #B24750",
"t. c #B54852",
"y. c #BD4A52",
"u. c #A75856",
"i. c #BD5B53",
"p. c #B85254",
"a. c #A94F4C",
"s. c #956851",
"d. c #B5634A",
"f. c #BA624B",
"g. c #AB674E",
"h. c #A95F6D",
"j. c #B16660",
"k. c #BE7673",
"l. c #C15F4F",
"z. c #C54D56",
"x. c #C54F5A",
"c. c #CA4F59",
"v. c #C45355",
"b. c #C25A53",
"n. c #CE515B",
"m. c #C9595B",
"M. c #C35E59",
"N. c #D1525D",
"B. c #D45B5E",
"V. c #D85C5F",
"C. c #C56653",
"Z. c #C96057",
"A. c #CD6C58",
"S. c #C96956",
"D. c #D6625F",
"F. c #D66A5D",
"G. c #CF7C57",
"H. c #C87B59",
"J. c #D8765D",
"K. c #D27A5A",
"L. c #D55D63",
"P. c #D76360",
"I. c #D96760",
"U. c #DA6B61",
"Y. c #D3666C",
"T. c #DC7362",
"R. c #DE7B62",
"E. c #D8716A",
"W. c #DD7A70",
"Q. c #C86A67",
"!. c #E17E64",
"~. c #E07561",
"^. c #E07C7C",
"/. c #CE895F",
"(. c #DB825F",
"). c #DB8B5F",
"_. c #DF8363",
"`. c #DB8965",
"'. c #D18370",
"]. c #D79776",
"[. c #E28364",
"{. c #E58B64",
"}. c #E3856C",
"|. c #E69465",
" X c #E99666",
".X c #EA9967",
"XX c #EB9B6C",
"oX c #E9946A",
"OX c #E5877B",
"+X c #EC9D75",
"@X c #E69878",
"#X c #EDA176",
"$X c #EEA47D",
"%X c #F0A67F",
"&X c #E68A86",
"*X c #E79C86",
"=X c #EFA582",
"-X c #EDA38C",
";X c #F0A986",
":X c #F1AC8A",
">X c #F1A780",
",X c #EFA691",
"<X c #F2AC99",
"1X c #F5B498",
"2X c #F4B397",
"3X c #F2AFA1",
"4X c #F8BEAB",
"5X c #F7BAA5",
"6X c #F6BDB8",
"7X c #D69490",
"8X c #FAC3B3",
"9X c #FBC6B9",
"0X c #FCC8BC",
"qX c #FECDC5",
"wX c #FECFC9",
"eX c #FFD1CA",
/* pixels */
"$ $ $ $ $ $ $ $ $ $ $ $ $ $ $ $ $ $ $ $ $ $ $ $ $ $ $ $ $ $ $ $ $ $ $ $ $ $ $ $ $ $ $ $ $ $ $ $ $ $ $ $ $ $ $ $ $ $ $ $ $ $ $ $ ",
"$ $ $ $ $ $ $ $ $ $ $ $ $ $ $ $ $ $ $ $ $ $ $ $ $ $ $ $ $ $ $ $ $ $ $ $ $ $ $ $ $ $ $ $ $ $ $ $ $ $ $ $ $ $ $ $ $ $ $ $ $ $ $ $ ",
"$ $ $ $ $ $ $ $ $ $ $ $ $ $ $ $ $ $ $ = $ $ $ $ $ $ $ $ $ $ $ $ $ $ $ $ $ $ $ $ $ $ $ $ $ $ $ $ $ $ $ $ $ $ $ $ $ $ $ $ $ $ $ $ ",
"$ $ $ $ $ $ $ $ $ $ $ $ $ $ $ $ $ $ $ $ $ $ $ $ $ $ $ $ $ $ $ $ $ $ $ $ $ $ $ $ $ $ $ $ $ $ $ $ $ $ $ $ $ $ $ $ $ $ $ $ $ $ $ $ ",
"$ $ $ $ $ $ $ $ $ $ $ $ $ $ $ $ $ $ $ $ $ $ $ $ $ $ $ $ $ $ $ $ $ $ $ $ $ $ $ $ $ $ $ $ $ $ $ $ $ $ $ $ $ $ $ $ $ $ $ $ $ $ $ $ ",
"$ $ $ $ $ $ $ $ $ $ $ $ $ $ $ $ $ $ $ $ $ $ $ $ $ $ $ $ $ $ $ $ $ $ $ $ $ $ $ $ $ $ $ $ $ $ $ $ $ $ $ $ $ $ $ $ $ $ $ $ $ $ $ $ ",
"$ $ $ $ $ $ $ $ $ $ $ $ $ $ $ $ $ $ $ $ $ $ $ $ $ $ $ $ $ $ $ $ $ $ $ $ $ $ $ $ $ $ $ $ $ $ $ $ $ $ $ $ $ $ $ $ $ $ $ $ $ $ $ $ ",
"$ $ $ $ $ $ $ $ $ $ $ $ $ $ $ $ $ $ $ $ $ $ $ $ $ $ $ $ $ $ $ $ $ $ $ $ $ $ $ $ $ $ $ $ $ $ $ $ $ $ $ $ $ $ $ $ $ $ $ $ $ $ $ $ ",
"$ $ $ $ $ $ $ $ $ $ $ $ $ $ $ $ $ $ $ $ $ $ $ $ $ $ $ $ $ $ $ $ $ $ $ $ $ $ $ $ $ $ $ $ $ $ $ $ $ $ $ $ $ $ $ $ $ $ $ $ $ $ $ $ ",
"$ $ $ $ $ $ $ $ $ $ $ $ $ $ $ $ $ $ $ $ $ $ $ $ $ $ $ $ $ $ $ $ $ $ $ $ $ $ $ $ $ $ $ $ $ $ $ $ $ $ $ $ $ $ $ $ $ $ $ $ $ $ $ $ ",
"$ $ $ $ $ $ $ $ $ $ $ $ $ $ $ $ $ $ $ $ $ $ $ $ $ $ + O O + O + + # $ $ # + O O # # $ $ $ $ $ $ $ $ $ $ $ $ $ $ $ $ $ $ $ $ $ $ ",
"$ $ $ $ $ $ $ $ $ $ $ $ $ $ $ $ $ $ $ $ $ $ # + X                     + o X X   X   o # $ > $ $ $ $ $ $ $ $ $ $ $ $ $ $ $ $ $ $ ",
"$ $ $ $ $ $ $ $ $ $ $ $ $ $ $ $ # $ $ $ # @ X         X O O X X o X O + + O X X X   X   + > 2 > $ $ $ $ $ $ $ $ $ $ $ $ $ $ $ $ ",
"$ $ $ $ $ $ $ $ $ $ $ $ $ $ $ + X O # X         O O # > & : : # > # > > > > + + + + + O O @ $ $ $ $ $ $ $ $ $ $ $ $ $ $ $ $ $ $ ",
"$ $ $ $ $ $ $ $ $ $ $ $ $ # X   O O         X + > > > < 8 w B - < > > < 3 : < > $ > + O # # $ $ $ $ $ $ $ $ $ $ $ $ $ $ $ $ $ $ ",
"$ $ $ $ $ $ $ $ $ $ $ $ #                 # e D Z J ` ` ~ ~ ~ ~ f a r < , : N : < > > > + # $ $ $ $ $ $ $ $ $ $ $ $ $ $ $ $ $ $ ",
"$ $ $ $ $ $ $ $ $ $ $ $ + X           X > r J +.t.t.%.$.( v v c z c c k B - : : 3 > > > > # # $ + X o # $ $ $ $ $ $ $ $ $ $ $ $ ",
"$ $ $ $ $ $ $ $ $ $ $ $ $ O   X X X + > u l _ { ) U v P ~ #.%.&.*.@.( ~ ~ @.U k < > 3 m , > # + +       # $ $ $ $ $ $ $ $ $ $ $ ",
"$ $ $ $ $ $ $ $ $ $ > + +   X # + O > 1 z _ ` o.@.7.y.y.y.c.c.c.y.q.#.{ @.] ' 3.:.L B N ; # # X X o     X $ $ $ $ $ $ $ $ $ $ $ ",
"$ $ $ $ $ $ $ $ $ $ # X   O # > # 3 2 i #.[ 2.7.7.r.*.+.P I o.o.( x x _ [ } / ^ ' [ c Z C A #             + $ $ $ $ $ $ $ $ $ $ ",
"$ $ $ $ $ $ $ $ > # > + X > > 2 B Z y x 2.{ 8.F.*X&XE.v.3._ ~ x ~ ~ ~ c ^ t.v.f...! ! c Z Z 8 + O + O + + # $ $ $ $ $ $ $ $ $ $ ",
"$ $ $ $ $ $ $ < > + O   # > > m Z M p Q / 3.W.8XwXeX5XT.c.7.^ [ / ! Q Q ' z.L.!.{.d.~ ! c Z Z ; + > > > # # $ $ $ $ $ $ $ $ $ $ ",
"$ $ $ $ $ $ < 4 , + X O # # + < M 7 c v 6.T.5XqXeX6Xk.P I K G I v @.} / ' 7.z.N.R._.$.z ^ c B > # > > > # # # $ $ $ $ $ $ $ $ $ ",
"$ $ $ $ $ $ # # # X # > +   + $ ; k c _ A.=X1X;X3Xh.Z Z Z Z Z C Z Z U ( ^ q.7.q.v.B.t.H z Q y > > # # > # O # $ $ $ $ $ $ $ $ $ ",
"$ $ $ $ $ $ X   X X $ # X X > , a c J t.oX:XXX{.b.K Z Z K K G l H G G Z J @.z.2.' { ' c z ^ l 8 < > + > > + + # # $ $ $ $ $ $ $ ",
"$ $ $ $ $ +   X X o > # X + > A J c U A.%X>X{.U.@.V U $.U 6 $ # $ = 0 g G Z +.c.7.0.' ^ x v ~ N 2 2 > + > # X O O # $ $ < $ $ $ ",
"$ $ $ $ # X   X   O > + X > ; C l z :.`.XXXX Xb.^ ~ j 8 X   .   . .   * 6 G K t.c.y.y.2./ x c 8 > t > + # > O X X + $ $ $ $ $ $ ",
"$ $ $ $ $ X X X   X +   O 8 G J c O.w.=XXX.X{.p.Q 5                     . ; I +.n.3.z.8.} ^ G N > A 3 # # > + X O + $ $ $ $ $ $ ",
"$ $ $ $ # X X     X X   % F c z #.n.[.&X[.{.D.7.5 o   .                 X . m U 0.3.7.c.8._ J G 3 ; N # X + +   O + $ $ $ $ $ $ ",
"$ $ $ $ $ O o     .   o q z Q ' 7.N.D.N.F.w.z.o.X                       . X   =  .z. .c.z.} x J M > t , o       O # $ $ $ $ $ $ ",
"$ $ $ $ $ # X * $ 3 y P [ } 0.c.n.N.c.n.9.^ y.y .                             X z 9.{ N.7.3.! l F e N < o       + $ $ $ $ $ $ $ ",
"$ $ O % M 8 i x ^ '  .9.y.y.y.0.} [ 2.7. .3.6.* . .   . . . . . . .   . . . . . u 3.4.Z.Z.3.2.P l ^ O.x s 5 = + X O X # $ $ $ $ ",
"# # 8 q a U r.b.S.G.G.G.C.b.y.y.9.4.C.R.U.U.u.Y Y Y Y Y T Y T T Y Y Y Y T R R T s.J.T.D.B.Z.D.5.:.,.u.4.X. .[ O.( J 6 $ o + # $ ",
"M B z Q  .n.U.I.F.F.[.[.[.!.A.z.q.{ ' ..w.S.(.[.[.G.(._.).|.|.|.|.[.[.J.`.'.Q.Z.U.T.P.R.oXT.V.L.B.D.D.F.F.B.P.F.~.[.A.i.$.c s $ ",
"& = $ 9 J b O.]  .[ [ } 3.b.w.7. .{  .[ [ [ 3.v.z.' { [ ..b.D.i.u.+.;.[ / ..d.d.S.G.T.OX^.z.q.3.3.[ } 3.0.z.i.u.>.=.=.W r - 6 $ ",
"$ $ $ $ # + & % 6 w h s d ! ' y.3.] ^ { 0.o._ b p r 7 - e y A A 8 = t ; - = 1 6 i a 5.&XL.2.~ Q Q ! ! ! d s 1 # O   o + # # $ $ ",
"$ $ $ $ $ $ #           7 J J +.3.^ l l [ 6.h - - = + X . .   X X X X   X X X $ 5 E 7X<XOXl.! ' O.x J z - O     X # $ $ $ $ $ $ ",
"$ $ $ $ $ $ # X         7 J Z &.9.Q x J c 2._ 3                             . X n ].8X8X:X*X| ' O.l Z l $   + + # $ $ $ $ $ $ $ ",
"$ $ $ $ $ $ $ O         - z Z P 7.^ { 2.7.] 2.o.@                           . Y ).2X5XqX2X5Xj.Q l J G f o   + # $ $ $ $ $ $ $ $ ",
"$ $ $ $ $ $ $ #         O j F l 8.{ 2.y.N.q.! ' p X                         S /.+X8X8X9X;X-X:.^ v x J h X   # > $ $ $ $ $ $ $ $ ",
"$ $ $ $ $ $ $ & o         5 e a [ { 3.n.N.c.[ { u = X                     ; H. X1XqXwX2X:X`./ 2._ c c 8   X $ + # $ $ $ $ $ $ $ ",
"$ $ , = $ $ + # +         # u r Q [ c.N.N.n.z.2.6.D F A @     .       + 6 g. X$X0XwX9X$X>XC.' z.+.V k : X + # X + $ $ $ $ $ $ $ ",
"$ $ $ $ $ # +   o X         : 3 h ;.N.n.n.N.B.m.4.y.) _ U D m & # $ 1 e k H.%X9XqXqX:XXX{.4.[ ;.B u e #   O +   + $ $ $ $ $ $ $ ",
"$ $ $ $ $ $ X     +         + > = K Z.B.N.D.B.B.D.F.J.l.>.e D 3 6 6 D -.u.*X4X4X9X,X[. X[.3.@.H 3 $ $ +     O X # $ $ $ $ $ $ $ ",
"$ $ $ $ $ $ # X   + X   X X X + > < ,.{.V.B.F.R.!.U.{. X`.C.1.-.6.0.Y.&X-X>X+X<X&XF.{.{.B.+.V 8 , 8 N +   o   O $ $ $ $ $ $ $ $ ",
"$ $ $ $ $ $ $ $ + # +   X # > + > > u d.!.B.B.B.R.[.{.{.U.P.L.V.I.{.#X+X+X:X+X{.[. X{.B.*.Z M > M Z B X   o   # $ $ $ $ $ $ $ $ ",
"$ $ $ $ $ $ $ $ $ $ > O X > > > > # 3 ~ 3.B.I.T.T.D.D.U.U.P.N.P.U.!.@X:X:X#X.X X X[.m.*.Z A > 2 C C m . o # + # $ $ $ $ $ $ $ $ ",
"$ $ $ $ $ $ $ $ $ # > > O # > > 2 3 $ f ! 3.c.I.{.|.[.R.D.B.B.B.B.}.;X#X X X[.A.e.-.I Z : > > M Z m     # $ $ $ $ $ $ $ $ $ $ $ ",
"$ $ $ $ $ $ $ $ $ $ $ $ X X $ $ 3 Z m - ^ ! ' f.)..X.X.X!.T.U.U.N.B.U.U.A.f.| ^ c K a 1 > > > = m     @ $ $ $ $ $ $ $ $ $ $ $ $ ",
"$ $ $ $ $ $ $ $ $ $ $ $ # + # $ < B Z m r d ! ! | f.(. X[.P.B.U.N.N.c.3.' ^ ] | o.u 1 > > # O   . . O # $ $ $ $ $ $ $ $ $ $ $ $ ",
"$ $ $ $ $ $ $ $ $ $ $ $ $ # $ $ > < B V : $ 0 f d ~ ] 5.x.z.z.z.y.3.' ! Q / o.F 2 > > + O X       X O O $ $ $ $ $ $ $ $ $ $ $ $ ",
"$ $ $ $ $ $ $ $ $ $ $ $ $ $ $ $ $ > 2 - : # X X ; B V B K x ~ ` ^ ~ ^ d j 8 > # + # + + + X   .   X   O # $ $ $ $ $ $ $ $ $ $ $ ",
"$ $ $ $ $ $ $ $ $ $ $ $ $ $ $ $ # # # # $ $ X . X X o & = 2 t N 8 9 y : , $ % ; A N < # o . X X       # $ $ $ $ $ $ $ $ $ $ $ $ ",
"$ $ $ $ $ $ $ $ $ $ $ $ $ $ $ $ # o O X O o o     .   X + M B C C Z B Z S > > < < > + X       o   X # $ $ $ $ $ $ $ $ $ $ $ $ $ ",
"$ $ $ $ $ $ $ $ $ $ $ $ $ $ $ $ $ O     X X o X           @ % m m : : : < > > + + X X   X o       # $ $ $ $ $ $ $ $ $ $ $ $ $ $ ",
"$ $ $ $ $ $ $ $ $ $ $ $ $ $ $ $ $ # # X X   X + o                     X             O O $ # + X # $ $ $ $ $ $ $ $ $ $ $ $ $ $ $ ",
"$ $ $ $ $ $ $ $ $ $ $ $ $ $ $ $ $ $ $ $ # + o + $ # X X                         + + # $ $ $ $ $ $ $ $ $ $ $ $ $ $ $ $ $ $ $ $ $ ",
"$ $ $ $ $ $ $ $ $ $ $ $ $ $ $ $ $ $ $ $ $ $ $ $ $ $ $ # # + + + X X X X X O + # $ $ $ $ $ $ $ $ $ $ $ $ $ $ $ $ $ $ $ $ $ $ $ $ ",
"$ $ $ $ $ $ $ $ $ $ $ $ $ $ $ $ $ $ $ $ $ $ $ $ $ $ $ $ $ $ $ $ $ $ $ $ $ $ $ $ $ $ $ $ $ $ $ $ $ $ $ $ $ $ $ $ $ $ $ $ $ $ $ $ ",
"$ $ $ $ $ $ $ $ $ $ $ $ $ $ $ $ $ $ $ $ $ $ $ $ $ $ $ $ $ $ $ $ $ $ $ $ $ $ $ $ $ $ $ $ $ $ $ $ $ $ $ $ $ $ $ $ $ $ $ $ $ $ $ $ ",
"$ $ $ $ $ $ $ $ $ $ $ $ $ $ $ $ $ $ $ $ $ $ $ $ $ $ $ $ $ $ $ $ $ $ $ $ $ $ $ $ $ $ $ > $ $ $ $ $ $ $ $ $ $ $ $ $ $ $ $ $ $ $ $ ",
"$ $ $ $ $ $ $ $ $ $ $ $ $ $ $ $ $ $ $ $ $ $ $ $ $ $ $ $ $ $ $ $ $ $ $ $ $ $ $ $ $ $ $ = $ $ $ $ $ $ $ $ $ $ $ $ $ $ $ $ $ $ $ $ ",
"$ $ $ $ $ $ $ $ $ $ $ $ $ $ $ $ $ $ $ $ $ $ $ $ $ $ $ $ $ $ $ $ $ $ $ $ $ $ $ $ $ $ $ $ $ $ $ $ $ $ $ $ $ $ $ $ $ $ $ $ $ $ $ $ ",
"$ $ $ $ $ $ $ $ $ $ $ $ $ $ $ $ $ $ $ $ $ $ $ $ $ $ $ $ $ $ $ $ $ $ $ $ $ $ $ $ $ $ $ $ $ $ $ $ $ $ $ $ $ $ $ $ $ $ $ $ $ $ $ $ "
};
