/* XPM */
static char *_95a51dd85a249b8d6cd56fc8aeabb69kQ0LtwdI1VLPXvno[] = {
/* columns rows colors chars-per-pixel */
"64 64 179 2 ",
"   c #38372E",
".  c #37352E",
"X  c #2A2D33",
"o  c #2D3036",
"O  c #2C323A",
"+  c #27353F",
"@  c #31353B",
"#  c #35393F",
"$  c #61541F",
"%  c #7A6717",
"&  c #4B4527",
"*  c #5E5220",
"=  c #605420",
"-  c #716731",
";  c #273944",
":  c #263D4C",
">  c #273844",
",  c #393D43",
"<  c #373E44",
"1  c #4A3B53",
"2  c #3D464B",
"3  c #394147",
"4  c #244355",
"5  c #314F5E",
"6  c #1F5C7A",
"7  c #224C61",
"8  c #20556E",
"9  c #215771",
"0  c #1F607F",
"q  c #42454A",
"w  c #43494E",
"e  c #454C51",
"r  c #495459",
"t  c #55575C",
"y  c #455474",
"u  c #455C7D",
"i  c #464A68",
"p  c #576368",
"a  c #5F6E74",
"s  c #67686C",
"d  c #627378",
"f  c #747578",
"g  c #94790F",
"h  c #788579",
"j  c #BC9804",
"k  c #A88D16",
"l  c #AA8B08",
"z  c #C09A03",
"x  c #D4A800",
"c  c #CFA501",
"v  c #E2B501",
"b  c #EDBD00",
"n  c #E1BB1A",
"m  c #CDB12D",
"M  c #F4C300",
"N  c #FDCB02",
"B  c #ECC319",
"V  c #DFC138",
"C  c #F2CE2C",
"Z  c #ECCF3D",
"A  c #DCC759",
"S  c #D9C660",
"D  c #DCD07B",
"F  c #1E6688",
"G  c #1D739A",
"H  c #1D7097",
"J  c #1C7BA5",
"K  c #445F82",
"L  c #416387",
"P  c #5C7C87",
"I  c #6B7D82",
"U  c #7B7D80",
"Y  c #1C84B2",
"T  c #1F88B7",
"R  c #1A89BA",
"E  c #228BBA",
"W  c #2289B7",
"Q  c #3193BE",
"!  c #728487",
"~  c #788D92",
"^  c #6D8085",
"/  c #7E9EA9",
"(  c #6795B6",
")  c #6895B6",
"_  c #249ACE",
"`  c #2292C2",
"'  c #269ED3",
"]  c #2AA5DB",
"[  c #2CA8DE",
"{  c #2EADE5",
"}  c #2FB1EA",
"|  c #32B5ED",
" . c #35BBF5",
".. c #3CBDF5",
"X. c #31B6F0",
"o. c #589EC6",
"O. c #49ADD8",
"+. c #55A3CD",
"@. c #6DB6DB",
"#. c #7FBBDA",
"$. c #43BFF5",
"%. c #45C1F7",
"&. c #4CC2F5",
"*. c #53C4F5",
"=. c #5AC6F5",
"-. c #67C2EA",
";. c #63C8F4",
":. c #68CAF4",
">. c #74CDF4",
",. c #848588",
"<. c #839A9E",
"1. c #969798",
"2. c #9E9FA0",
"3. c #859BA0",
"4. c #8BA1A6",
"5. c #8EA5AA",
"6. c #96ADB3",
"7. c #AEAEAF",
"8. c #A5A5A7",
"9. c #B0AFAF",
"0. c #A4B7BB",
"q. c #B3B4B4",
"w. c #C0BEBE",
"e. c #ACC1B8",
"r. c #D9D084",
"t. c #D3D4A3",
"y. c #C3CBB3",
"u. c #CFD6BF",
"i. c #CFD3AA",
"p. c #99B7C1",
"a. c #A5BEC4",
"s. c #A9BFC5",
"d. c #A5BFCB",
"f. c #B0BFC2",
"g. c #ABC0C5",
"h. c #B3C4CA",
"j. c #B3CAD3",
"k. c #B9CED6",
"l. c #B6CED8",
"z. c #BED6DB",
"x. c #BFD5D2",
"c. c #8FC9E5",
"v. c #92D2EE",
"b. c #85D2F4",
"n. c #9AD7F2",
"m. c #A9DBF2",
"M. c #B4DFF2",
"N. c #B8DFF1",
"B. c #A0D2E9",
"V. c #BEE3F3",
"C. c #CFCFCF",
"Z. c #C5C4C4",
"A. c #D5DBC7",
"S. c #C0D3D5",
"D. c #C0D3DB",
"F. c #C3D9DD",
"G. c #CCD9DA",
"H. c #D4D4D4",
"J. c #DBDBDB",
"K. c #D9D8D7",
"L. c #C4D5C4",
"P. c #CCDDE3",
"I. c #CFDFE8",
"U. c #C5DDE6",
"Y. c #D3DEE3",
"T. c #D0DFE8",
"R. c #D8DFE2",
"E. c #C6E1ED",
"W. c #D3E1E7",
"Q. c #D3E2E9",
"!. c #DDE8EB",
"~. c #CAE7F3",
"^. c #D2E8F1",
"/. c #E3E4E5",
"(. c #E4EAEC",
"). c #EFEEED",
"_. c #F0EEED",
"`. c #EBEFF1",
"'. c #EAF0F2",
/* pixels */
"X X X X X X X X X X X X X X X X X X X X X X X X X X X X X X X X X X X X X X X X X X X X X X X X X X X X X X X X X X X X X X X X ",
"X X X X X X X X X X X X X X X X X X X X X X X X X X X X X X X X X X X X X X X X X X X X X X X X X X X X X X X X X X X X X X X X ",
"X X X X X X X X X X X X X X X X X X X O X X X X X X X X X X X X X X X X X X X X X X X X X X X X X X X X X X X X X X X X X X X X ",
"X X X X X X X X X X X X X X X X X X X X X X X X X X X X X X X X X X X X X X X X X X X X X X X X X X X X X X X X X X X X X X X X ",
"X X X X X X X X X X X X X X X X X X X X X X X X X X X X X X X X X X X X X X X X X X X X X X X X X X X X X X X X X X X X X X X X ",
"X X X X X X X X X X X X X X X X X X X X X X X X X X X X X X X X X X X X X X X X X X X X X X X X X X X X X X X X X X X X X X X X ",
"X X X X X X X X X X X X X X X X X X X X X X O + + ; 4 7 8 6 F H J Y H > X X X X X X X X X X X X X X X X X X X X X X X X X X X X ",
"X X X X X X X X X X X X X X X X X X X ; 6 6 F G J Y W ` _ ' ] ] { { T : X X X X X X X X X X X X X X X X X X X X X X X X X X X X ",
"X X X X X X X X X X X X X X X X X X X 9 R ' ] { } X.X.X. . . . .| ' G > X X X X X X X X X X X X X X X X X X X X X X X X X X X X ",
"X X X X X X X X X X X X X X X X X X X : F W O.-.-.-.-.-.-.-.-.O.T F : X X X X X X X X X X X X X X X X X X X X X X X X X X X X X ",
"X X X X X X X X X X X X X X X X X X X X O P p.l.l.l.l.l.l.l.j./ 7 X X X X X X X X X X X X X X X X X X X X X X X X X X X X X X X ",
"X X X X X X X X X X X X X X X X X X X X 2 4.j.k.k.l.z.l.l.l.g.d o X X X X X X X X X X X X o X X X X X X X X X X X X X X X X X X ",
"X X X X X X X X X X X X X X X X X X X X d s.k.U.z.D.D.D.D.k.6.r o X X X X X X X X X X X X # @ X X X X X X X X X X X X X X X X X ",
"X X X X X X X X X X X X X X X X X X X o h y.A.A.T.T.Y.T.T.Y.0.p X X X X X X X X X X X X X @ o X X X X X X X X X X X X X X X X X ",
"X X X X X X X X X X X X X X X X X X X   k n B A G.W.W.W.W.Q.D.<., X X X X X X X X X X X X X X X X X X X X X X X X X X X X X X X ",
"X X X X X X X X X X X X X X X X X X X & z b b S T.W.W.W.W.Q.Y.s.d X X X X X X X X X X X X X X X X X X X X X X X X X X X X X X X ",
"X X X X X X X X X X X X X X X X X X X = x N N r.Q.W.W.W.W.W.Q.U.4.w X X X X X X X X X X X X X X X X X X X X X X X X X X X X X X ",
"X X X X X X X X X X X X X X X X X X X % v N N t.Q.W.W.W.W.W.W.W.h.I O X X X X X X X X X X X X X X X X X X X X X X X X X X X X X ",
"X X X X X X X X X X X X X X X X X X X g v M B A.W.W.W.W.W.Q.W.W.P.6.r X X X X X X X X X X X X X X X X X X X X X X X X X X X X X ",
"X X X X X X X X X X X X X X X X X X . l v b V C.W.W.W.W.W.W.W.W.Q.k.~ @ X X X X X X X X X X X X X X X X X X X X X X X X X X X X ",
"X X X X X X X X X X X X X X X X X X & j b M A P.W.W.W.W.W.W.W.W.W.T.0.p X X X X X X X X X X X X X X X X X X X X X X X X X X X X ",
"X X X X X X X o X X X X X X X X X X * c N N D W.W.W.W.W.W.W.W.W.W.Q.k.<.< X X X X X X X X X X X X X X X X X X X X X X X X X X X ",
"X X X X X X O # O X X X X X X X X X - m C C t.P.W.P.W.W.I.I.W.W.W.W.T.0.a O X X X X X X X X X X X X X X X X X X X X X X X X X X ",
"X X X X X X X X X X X X X X X X X X h e.L.L.z.z.z.z.z.z.z.z.D.U.U.G.P.F.4.2 X X X X X X X X X X X X X X X X X X X X X X X X X X ",
"X X X X X X X X X X X X X X X X @ f 0.S.P.P.U.P.P.G.P.U.P.P.U.D.z.z.z.z.0.^ # o X X X X X X X X X X X X X X X X X X X X X X X X ",
"X X X X X X X X X X X X X X X t 2.H./.`.`.`.`.`.`.`.`.`.`.`.(.(.(.!.W.W.F.g.9.1.,.f p t q , X X X X X X X X X X X X X X X X X X ",
"X X X X X X X X X X X X X 2 ,.Z.J.m.:.;.=.;.;.;.;.;.;.;.;.-.p.c.n.V.V.~.^.!.(././.J.K.C.w.q.2.1.f s q X X X X X X X X X X X X X ",
"X X X X X X X X X X X X X 7.K.U.>... . . . . . . . . . . .L 5 y u +.$.$.*.=.:.>.b.n.m.N.U.I.T.R.J.K.7.X X X X X X X X X X X X X ",
"X X X X X X X X X X X X X h.v.*. . . . . . . ... . . . . .u 1 1 1 ( %. . . . . . . . ...$.$.*.:.^._.C.O X X X X X X X X X X X X ",
"X X X X X X X X X X X X o ` |  . . . . . . . ... . . . . .u 1 1 e ( %. . . . . . . . . . . . ...V._.C.X X X X X X X X X X X X X ",
"X X X X X X X X X X X X o R |  . . . . . . ... . . . . . .u 1 1 1 ) %. . . . . . ... . . . . .$.V._.C.X X X X X X X X X X X X X ",
"X X X X X X X X X X X X X W |  . . . . . . . . . . . . . .y 1 1 1 ) %. . . . . . . . . ... . .$.V._.C.X X X X X X X X X X X X X ",
"X X X X X X X X X X X X X E |  . . . . . . . . . . . . . .u 1 1 1 ( $. . . . . . . . . . . . ...V.).C.X X X X X X X X X X X X X ",
"X X X X X X X X X X X X X d.v.&. . . . . . . . . . . . . .y 1 1 1 ( $. . . . . . . . . .$.*.=.:.~.).C.X X X X X X X X X X X X X ",
"X X X X X X X X X X X X X 9.K.N.>... . . . . . . . . . .X.L i y u o.$.$.$.=.;.>.b.n.m.N.U.E.Q.R.J.H.q.X X X X X X X X X X X X X ",
"X X X X X X X X X X X X X q ,.Z.R.m.:.;.;.;.;.=.;.;.;.;.;.@.#.c.B.N.E.~.^.!.(.(./.J.J.K.Z.q.8.1.U s w X X X X X X X X X X X X X ",
"X X X X X X X X X X X X X X X t 2.H./.).).`.`.).`.).`.`.`.'.(.(./.!.W.W.P.f.q.7.1.h s t e , o X X X X X X X X X X X X X X X X X ",
"X X X X X X X X X X X X X X X X # f 0.z.E.G.P.P.G.E.E.G.P.P.F.F.z.z.z.z.s.! 1 @ o X X X X X o X X X X X X X X X X X X X X X X X ",
"X X X X X X X X X X X X X X X X X O h e.x.x.z.z.z.z.z.x.z.z.D.F.F.F.E.x.5.2 X X X X X X X X X X X X X X X X X X X X X X X X X X ",
"X X X X X X X X X X X X X X X X X O - m Z Z i.U.P.P.P.W.P.I.W.Y.Q.Q.W.g.d X X X X X X X X X X X X X X X X X X X X X X X X X X X ",
"X X X X X X X X X X X X X X X X X X $ c N N D P.W.Q.W.W.W.W.W.W.Q.W.S.<.3 o X X X X X X X X X X X X X X X X X X X X X X X X X X ",
"X X o o X X X X X X X X X X X X X X & j M M A P.W.W.W.W.W.W.W.Q.Q.W.0.p X X X X X X X X X X X X X X X X X X X X X X X X X X X X ",
"X X X X X X X X X X X X X X X X X X . l v b V G.Q.Q.W.W.Q.W.W.W.Q.k.~ # X X X X X X X X X X X X X X X X X X X X X X X X X X X X ",
"X X X X X X X X X X X X X X X X X X o g v M B A.Q.W.W.W.W.W.W.W.W.6.r X X X X X X X X X X X X X X X X X X X X X X X X X X X X X ",
"X X X X X X X X X X X X X X X X X X X % v N N t.Q.Q.W.W.W.W.W.Q.h.^ O X X X X X X X X X X X X X X X X X X X X X X X X X X X X X ",
"X X X X X X X X X X X X X X X X X X X = x N N r.T.W.Q.W.W.W.Q.F.5.e X X X X X X X X X X X X X X X X X X X X X X X X X X X X X X ",
"X X X X X X X X X X X X X X X X X X X & j b b S T.Q.W.Q.W.W.W.g.d o X X X X X X X X X X X X X X X X X X X X X X X X X X X X X X ",
"X X X X X X X X X X X X X X X X X X X . k n B A G.Q.W.W.W.Q.z.3.3 X X X X X X X X X X X X X X X X X X X X X X X X X X X X X X X ",
"X X X X X X X X X X X X X X X X X X X o h y.A.A.T.W.W.I.T.I.0.p X X X X X X X X X X X X X X X X X X X X X X X X X X X X X X X X ",
"X X X X X X X X X X X X X X X X X X X X d g.D.D.D.D.D.z.z.k.6.e X X X X X X X X X X X X X X X X X X X X X X X X X X X X X X X X ",
"X X X X X X X X X X X X X X X X X X X X 2 4.j.k.k.k.k.k.l.l.a.I X X X X X X X X X X X X X X X X X X X X X X X X X X X X X X X X ",
"X X X X X X X X X X X X X X X X X X X X O P p.l.l.l.l.l.l.l.j./ 5 X X X X X X X X X X X X X X X X X X X X X X X X X X X X X X X ",
"X X X X X X X X X X X X X X X X X X X : F T O.-.-.-.-.-.-.-.-.O.W F : X X X X X X X X X X X X X X X X X X X X X X X X X X X X X ",
"X X X X X X X X X X X X X X X X X X X 8 Y ' ] { } | X. . . . . .| ' G > X X X X X X X X X X X X X X X X X X X X X X X X X X X X ",
"X X X X X X X X X X X X X X X X X X X : 6 6 F G J Y W ` _ ' ] ] { { T : X X X X X X X X X X X X X X X X X X X X X X X X X X X X ",
"X X X X X X X X X X X X X X X X X X X X X X X + + : 4 4 8 6 F H J Y H > X X X X X X X X X X X X X X X X X X X X X X X X X X X X ",
"X X X X X X X X X X X X X X X X X X X X X X X X X X X X X X X X X X X X X X X X X X X X X X X X X X X X X X X X X X X X X X X X ",
"X X X X X X X X X X X X X X X X X X X X X X X X X X X X X X X X X X X X X X X X X X X X X X X X X X X X X X X X X X X X X X X X ",
"X X X X X X X X X X X X X X X X X X X X X X X X X X X X X X X X X X X X X X X X X X X X X X X X X X X X X X X X X X X X X X X X ",
"X X X X X X X X X X X X X X X X X X X X X X X X X X X X X X X X X X X X X X X X X X X X X X X X X X X X X X X X X X X X X X X X ",
"X X X X X X X X X X X X X X X X X X X X X X X X X X X X X X X X X X X X X X X X X X X O X X X X X X X X X X X X X X X X X X X X ",
"X X X X X X X X X X X X X X X X X X X X X X X X X X X X X X X X X X X X X X X X X X X X X X X X X X X X X X X X X X X X X X X X ",
"X X X X X X X X X X X X X X X X X X X X X X X X X X X X X X X X X X X X X X X X X X X X X X X X X X X X X X X X X X X X X X X X ",
"X X X X X X X X X X X X X X X X X X X X X X X X X X X X X X X X X X X X X X X X X X X X X X X X X X X X X X X X X X X X X X X X "
};
