/* XPM */
static char *_9e901bd76d84254c777c96d84c57adc7CtqJdrFuSGAKzxV[] = {
/* columns rows colors chars-per-pixel */
"64 64 179 2 ",
"   c #38372E",
".  c #37352E",
"X  c #2A2D33",
"o  c #2D3036",
"O  c #2D323A",
"+  c #27353F",
"@  c #31353B",
"#  c #35393F",
"$  c #61541F",
"%  c #7A6717",
"&  c #4B4527",
"*  c #5E5220",
"=  c #605420",
"-  c #716731",
";  c #273944",
":  c #263D4C",
">  c #273641",
",  c #393D43",
"<  c #373E44",
"1  c #4A3B53",
"2  c #3D464B",
"3  c #394147",
"4  c #244355",
"5  c #314F5E",
"6  c #1F5C7A",
"7  c #224C61",
"8  c #20556E",
"9  c #215772",
"0  c #1F607F",
"q  c #42454A",
"w  c #43494E",
"e  c #454C51",
"r  c #495459",
"t  c #55575C",
"y  c #455474",
"u  c #455C7D",
"i  c #464A68",
"p  c #576368",
"a  c #5F6E74",
"s  c #67686C",
"d  c #627378",
"f  c #747578",
"g  c #94790F",
"h  c #788579",
"j  c #BC9804",
"k  c #A88D16",
"l  c #AA8B08",
"z  c #C09A03",
"x  c #D4A800",
"c  c #CFA501",
"v  c #E2B501",
"b  c #EDBD00",
"n  c #E1BB1A",
"m  c #CDB12D",
"M  c #F4C300",
"N  c #FDCB02",
"B  c #ECC319",
"V  c #DFC138",
"C  c #F2CE2C",
"Z  c #ECCF3D",
"A  c #DCC759",
"S  c #D9C660",
"D  c #DCD07B",
"F  c #1E6688",
"G  c #1D739A",
"H  c #1D7097",
"J  c #1C7BA5",
"K  c #445F82",
"L  c #416387",
"P  c #5C7C87",
"I  c #6B7D82",
"U  c #7B7D80",
"Y  c #1C84B2",
"T  c #1F88B7",
"R  c #1A89BA",
"E  c #228BBA",
"W  c #2289B7",
"Q  c #3193BE",
"!  c #728487",
"~  c #788D92",
"^  c #6D8085",
"/  c #7E9EA9",
"(  c #6795B6",
")  c #6895B6",
"_  c #249ACE",
"`  c #2292C2",
"'  c #269ED3",
"]  c #2AA5DB",
"[  c #2CA8DE",
"{  c #2EADE5",
"}  c #2FB1EA",
"|  c #32B5ED",
" . c #35BBF5",
".. c #3CBDF5",
"X. c #31B6F0",
"o. c #589EC6",
"O. c #49ADD8",
"+. c #55A3CD",
"@. c #6DB6DB",
"#. c #7FBBDA",
"$. c #43BFF5",
"%. c #45C1F7",
"&. c #4CC2F5",
"*. c #53C4F5",
"=. c #5AC6F5",
"-. c #67C2EA",
";. c #63C8F4",
":. c #68CAF4",
">. c #74CDF4",
",. c #848588",
"<. c #839A9E",
"1. c #969798",
"2. c #9E9FA0",
"3. c #859BA0",
"4. c #8BA1A6",
"5. c #8EA5AA",
"6. c #96ADB3",
"7. c #AEAEAF",
"8. c #A5A5A7",
"9. c #B0AFAF",
"0. c #A4B7BB",
"q. c #B3B4B4",
"w. c #C0BEBE",
"e. c #ACC1B8",
"r. c #D9D084",
"t. c #D3D4A3",
"y. c #C3CBB3",
"u. c #CFD6BF",
"i. c #CFD3AA",
"p. c #99B7C1",
"a. c #A5BEC4",
"s. c #A9BFC5",
"d. c #A5BFCB",
"f. c #B0BFC2",
"g. c #ABC0C5",
"h. c #B3C4CA",
"j. c #B3CAD3",
"k. c #B9CED6",
"l. c #B6CED8",
"z. c #BED6DB",
"x. c #BFD5D2",
"c. c #8FC9E5",
"v. c #92D2EE",
"b. c #85D2F4",
"n. c #9AD7F2",
"m. c #A9DBF2",
"M. c #B4DFF2",
"N. c #B8DFF1",
"B. c #A0D2E9",
"V. c #BEE3F3",
"C. c #CFCFCF",
"Z. c #C5C4C4",
"A. c #D5DBC7",
"S. c #C0D3D5",
"D. c #C0D3DB",
"F. c #C3D9DD",
"G. c #CCD9DA",
"H. c #D4D4D4",
"J. c #DBDBDB",
"K. c #D9D8D7",
"L. c #C4D5C4",
"P. c #CCDDE3",
"I. c #CFDFE8",
"U. c #C5DDE6",
"Y. c #D3DEE3",
"T. c #D0DFE8",
"R. c #D8DFE2",
"E. c #C6E1ED",
"W. c #D3E1E7",
"Q. c #D3E2E9",
"!. c #DDE8EB",
"~. c #CAE7F3",
"^. c #D2E8F1",
"/. c #E3E4E5",
"(. c #E4EAEC",
"). c #EFEEED",
"_. c #F0EEED",
"`. c #EBEFF1",
"'. c #EAF0F2",
/* pixels */
"X X X X X X X X X X X X X X X X X X X X X X X X X X X X X X X X X X X X X X X X X X X X X X X X X X X X X X X X X X X X X X X X ",
"X X X X X X X X X X X X X X X X X X X X X X X X X X X X X X X X X X X X X X X X X X X X X X X X X X X X X X X X X X X X X X X X ",
"X X X X X X X X X X X X X X X X X X X o X X X X X X X X X X X X X X X X X X X X X X X X X X X X X X X X X X X X X X X X X X X X ",
"X X X X X X X X X X X X X X X X X X X X X X X X X X X X X X X X X X X X X X X X X X X X X X X X X X X X X X X X X X X X X X X X ",
"X X X X X X X X X X X X X X X X X X X X X X X X X X X X X X X X X X X X X X X X X X X X X X X X X X X X X X X X X X X X X X X X ",
"X X X X X X X X X X X X X X X X X X X X X X X X X X X X X X X X X X X X X X X X X X X X X X X X X X X X X X X X X X X X X X X X ",
"X X X X X X X X X X X X X X X X X X X X X X X X X X X X X X X X X X X X X X X X X X X X X X X X X X X X X X X X X X X X X X X X ",
"X X X X X X X X X X X X X X X X X X X X X X X X X X X X X X X X X X X X X X X X X X X X X X X X X X X X X X X X X X X X X X X X ",
"X X X X X X X X X X X X X X X X X X X X X X X X X X X X X X X X X X X X X X X X X X X X X X X X X X X X X X X X X X X X X X X X ",
"X X X X X X X X X X X X X X X X X X X X X X X X X X X X X X X X X X X X X X X X X X X X X X X X X X X X X X X X X X X X X X X X ",
"X X X X X X X X X X X X X X X X X X X X X X X X X X X X X X X X X X X X X X X X X X X X X X X X X X X X X X X X X X X X X X X X ",
"X X X X X X X X X X X X X X X X X X X X X X X X X X X X X X X X X X X X X X X X X X X X X o X X X X X X X X X X X X X X X X X X ",
"X X X X X X X X X X X X X X X X X X X X X X X X X X X X X X X X X X X X X X X X X X X X X @ @ X X X X X X X X X X X X X X X X X ",
"X X X X X X X X X X X X X X X X X X X X X X X X X X X X X X X X X X X X X X X X X X X X X @ o X X X X X X X X X X X X X X X X X ",
"X X X X X X X X X X X X X X X X X X X X X X X X X X X X X X X X X X X X X X X X X X X X X X X X X X X X X X X X X X X X X X X X ",
"X X X X X X X X X X X X X X X X X X X X X X X X X X X q 9.d.` R R Q h.7.q X X X X X X X X X X X X X X X X X X X X X X X X X X X ",
"X X X X X X X X X X X X X X X X X X X X X X X X X X o ! K.v.| | | X.v.K.! o X X X X X X X X X X X X X X X X X X X X X X X X X X ",
"X X X X X X X X X X X X X X X X X X X X X X X X X X t Z.U.&... . . .&.U.Z.t X o X X X X X X X X X X X X X X X X X X X X X X X X ",
"X X X X X X X X X X X X X X X X X X X X X X X X X # 2.J.>. . . . . . .>.J.2.# o X X X X X X X X X X X X X X X X X X X X X X X X ",
"X X X X X X X X X X X X X X X X X X X X X X X X o f H.m... . . . . . ...m.H.d X X X X X X X X X X X X X X X X X X X X X X X X X ",
"X X X X X X X X X X X X X X X X X X X o . & $ - ^ 0.(.:. . . . . ... . .:./.q.h - * & . o X X X X X X X X X X X X X X X X X X X ",
"X X X X X X X o : 9 : X X X o   & $ % g l j c m e.x.`.;. ... . . . . . .;.`.z.q.m c j l g % $ & . X X X X : 9 ; X X X X X X X X ",
"X X X X X X O # 9 R F O w d h k z x v v v b N Z x.W.`.;. . . . . . . . .;.`.P.L.C N b v v v x j k h d q + F R 8 X X X X X X X X ",
"X X X X X X X O 0 _ W P 4.g.y.n b N N M M M N Z x.G.`.;. . . . . . . . .;.`.P.L.C N b b M N N b n y.s.4.I R ' F X X X X X X X X ",
"X X X X X X X X F { O.p.j.D.A.B b N N B V A D i.z.F.'.;.X. . . . ... . .=.`.P.x.t.D A Z n N N b n A.z.j.p.O.{ F X X X X o X X X ",
"X X X X X X X O G { -.j.k.D.A.A A r.t.A.H.T.W.U.z.P.'.;. . . . . . . . .;.'.P.z.P.Q.P.G.u.t.r.A A H.D.k.j.-.{ G + X X X o X X X ",
"X X X X X X X > J } -.l.k.D.T.G.I.I.I.Q.Q.W.W.T.z.P.'.;. . ... . . . . .;.'.P.z.P.Q.W.Q.T.W.T.T.K.W.D.k.l.-.X.J > X X X X X X X ",
"X X X X X X X : Y } -.l.k.D.W.W.T.Q.Q.Q.W.W.W.P.z.G.`.;. . . . . . ... .;.'.P.z.W.W.W.W.W.W.W.W.W.W.D.l.l.-.X.J ; X X X X X X X ",
"X X X X X X X 4 R X.-.l.l.D.T.W.W.W.W.W.W.W.Q.P.z.P.`.;. . . . . . . . .;.`.P.z.P.W.W.W.W.W.W.W.W.W.z.j.l.-.X.E 4 X X X X X X X ",
"X X X X X X X 7 ` X.-.l.l.D.W.W.W.W.W.Q.W.W.Q.P.z.P.`.;. . . . . . . . .;.`.P.z.W.W.W.W.Q.W.W.W.W.W.z.k.l.-.X.` 7 X X X X X X X ",
"X X X X X X X 9 _  .-.l.l.D.T.W.Q.W.W.W.W.W.W.P.z.W.'.=.X. . . . . . . .;.'.P.z.Y.W.W.W.W.W.W.W.W.T.D.k.l.-.X._ 6 X X X X X X X ",
"X X X X X X X 9 '  .-.l.k.k.Y.Q.W.W.W.W.Q.W.W.P.z.F.'.@.L u u u u u u L @.'.F.z.T.W.Q.W.W.W.W.W.Q.P.k.k.l.-. ._ 6 X X X X X X X ",
"X X X X X X X F ]  .-.h.a.6.0.D.W.Q.W.W.W.W.W.Y.z.F.(.#.i 1 1 1 1 1 1 i #.'.F.z.T.W.W.W.W.W.Q.T.D.0.6.a.j.-. .] F X X X X X X X ",
"X X X X X X X G {  .O./ d r p 3.g.G.W.W.W.W.W.W.F.D.`.c.y 1 1 1 1 1 1 y c.'.z.F.W.W.W.W.W.W.G.s.<.p r I / O. .{ H X X X X X X X ",
"X X X X X X X J { } T 5 O o X 3 d 5.h.P.Q.W.W.W.F.z.(.B.y 1 1 1 1 1 1 u n.(.z.U.W.W.W.R.P.h.5.d , X X X 5 T | { J X X X X X X X ",
"X X X X X X X Y { ' F o X X X X X e ^ 6.k.P.W.W.U.z.!.M.o.) ( ( ) ) ) +.M.(.z.F.W.W.T.j.6.I e X X X X X X F ' { Y X X X X X X X ",
"X X X X X X X H R G : X X X X X X X @ r ~ 0.z.T.G.z.W.V.%.%.%.%.%.%.%.%.V.W.x.P.T.S.0.~ r o X X X X X X X : G R H X X X X X X X ",
"X X X X X X X > 4 + X X X X X X X X X X < p <.a.D.z.W.~.$. . . . . . .$.~.W.z.x.s.<.p @ X X X X X X X X X X ; : + X X X X X X X ",
"X X X X X X X X X X X X X X X X X X X X X X 3 d 5.g.F.^.*. . . . . . .*.^.F.a.4.a , X X X X X X X X X X X X X X X X X X X X X X ",
"X X X X X X X X X X X X X X X X X X X X X X X O e ! e.!.=. . . . . . .=.!.g.^ 2 X X X X X X X X X X X X X X X X X X X X X X X X ",
"X X X X X X X X X X X X X X X X X X X X X X X X X q q.(.;. . . . . . .;.(.9.# X X X X X X X X X X X X X X X X X X X X X X X X X ",
"X X O X X X X X X X X X X X X X X X X X X X X X X @ 7./.>. . . . . . .>.(.1.o X X X X X X X X X X X X X X X X X X X X X X X X X ",
"X X o X X X X X X X X X X X X X X X X X X X X X X X 1./.b. . . . . . .b./.,.X X X X X X X X X X X X X X X X X X X X X X X X X X ",
"X X X X X X X X X X X X X X X X X X X X X X X X X X U J.n. . . . . . .n.J.f X X X X X X X X X X X X X X X X X X X X X X X X X X ",
"X X X X X X X X X X X X X X X X X X X X X X X X X X s K.m. . . . . . .m.K.p X X X X X X X X X X X X X X X X X X X X X X X X X X ",
"X X X X X X X X X X X X X X X X X X X X X X X X X X t A.V... . . ... .N.C.t X X X X X X X X X X X X X X X X X X X X X X X X X X ",
"X X X X X X X X X X X X X X X X X X X X X X X X X X e Z.U... . . . .%.E.w.q X X X X X X X X X X X X X X X X X X X X X X X X X X ",
"X X X X X X X X X X X X X X X X X X X X X X X X X X 1 q.~.&. . . . .&.E.q.# X X X X X X X X X X X X X X X X X X X X X X X X X X ",
"X X X X X X X X X X X X X X X X X X X X X X X X X X @ 8.Q.*. . . . .=.T.8.o X X X X X X X X X X X X X X X X X X X X X X X X X X ",
"X X X X X X X X X X X X X X X X X X X X X X X X X X X 1.R.:...$.$...:.!.,.X X X X X X X X X X X X X X X X X X X X X X X X X X X ",
"X X X X X X X X X X X X X X X X X X X X X X X X X X X f J.~.V.E.V.V.~.J.U X X X X X X X X X X X X X X X X X X X X X X X X X X X ",
"X X X X X X X X X X X X X X X X X X X X X X X X X X X s K._.`._._.).`.H.s X X X X X X X X X X X X X X X X X X X X X X X X X X X ",
"X X X X X X X X X X X X X X X X X X X X X X X X X X X e q.C.C.C.C.C.C.7.q X X X X X X X X X X X X X X X X X X X X X X X X X X X ",
"X X X X X X X X X X X X X X X X X X X X X X X X X X X X X X X X o @ o X X X X X X X X X X X X X X X X X X X X X X X X X X X X X ",
"X X X X X X X X X X X X X X X X X X X X X X X X X X X X X X X X O @ X X X X X X X X X X X X X X X X X X X X X X X X X X X X X X ",
"X X X X X X X X X X X X X X X X X X X X X X X X X X X X X X X X X X X X X X X X X X X X X X X X X X X X X X X X X X X X X X X X ",
"X X X X X X X X X X X X X X X X X X X X X X X X X X X X X X X X X X X X X X X X X X X X X X X X X X X X X X X X X X X X X X X X ",
"X X X X X X X X X X X X X X X X X X X X X X X X X X X X X X X X X X X X X X X X X X X X X X X X X X X X X X X X X X X X X X X X ",
"X X X X X X X X X X X X X X X X X X X X X X X X X X X X X X X X X X X X X X X X X X X X X X X X X X X X X X X X X X X X X X X X ",
"X X X X X X X X X X X X X X X X X X X X X X X X X X X X X X X X X X X X X X X X X X X X X X X X X X X X X X X X X X X X X X X X ",
"X X X X X X X X X X X X X X X X X X X X X X X X X X X X X X X X X X X X X X X X X X X o X X X X X X X X X X X X X X X X X X X X ",
"X X X X X X X X X X X X X X X X X X X X X X X X X X X X X X X X X X X X X X X X X X X X X X X X X X X X X X X X X X X X X X X X ",
"X X X X X X X X X X X X X X X X X X X X X X X X X X X X X X X X X X X X X X X X X X X X X X X X X X X X X X X X X X X X X X X X ",
"X X X X X X X X X X X X X X X X X X X X X X X X X X X X X X X X X X X X X X X X X X X X X X X X X X X X X X X X X X X X X X X X "
};
