/* XPM */
static char *f0cc11d9d8004b26d3011277a4d4ff95gA617MxKkhrR97H4[] = {
/* columns rows colors chars-per-pixel */
"64 64 179 2 ",
"   c #38372E",
".  c #37352E",
"X  c #2A2D33",
"o  c #2D3036",
"O  c #2D323A",
"+  c #27353F",
"@  c #31353B",
"#  c #35393F",
"$  c #61541F",
"%  c #7A6717",
"&  c #4B4527",
"*  c #5E5220",
"=  c #605420",
"-  c #716731",
";  c #273944",
":  c #263D4B",
">  c #273641",
",  c #393D43",
"<  c #373E44",
"1  c #4A3B53",
"2  c #3D464B",
"3  c #394147",
"4  c #244355",
"5  c #314F5E",
"6  c #1F5C7A",
"7  c #224C61",
"8  c #20556E",
"9  c #215771",
"0  c #1F607F",
"q  c #42454A",
"w  c #43494E",
"e  c #454C51",
"r  c #495459",
"t  c #55575C",
"y  c #455474",
"u  c #455C7D",
"i  c #464A68",
"p  c #576368",
"a  c #5F6E74",
"s  c #67686C",
"d  c #627378",
"f  c #747578",
"g  c #94790F",
"h  c #788579",
"j  c #BC9804",
"k  c #A88D16",
"l  c #AA8B08",
"z  c #C09A03",
"x  c #D4A800",
"c  c #CFA501",
"v  c #E2B501",
"b  c #EDBD00",
"n  c #E1BB1A",
"m  c #CDB12D",
"M  c #F4C300",
"N  c #FDCB02",
"B  c #ECC319",
"V  c #DFC138",
"C  c #F2CE2C",
"Z  c #ECCF3D",
"A  c #DCC759",
"S  c #D9C660",
"D  c #DCD07B",
"F  c #1E6688",
"G  c #1D739A",
"H  c #1D7097",
"J  c #1C7BA5",
"K  c #445F82",
"L  c #416387",
"P  c #5C7C87",
"I  c #6B7D82",
"U  c #7B7D80",
"Y  c #1C84B2",
"T  c #1F88B7",
"R  c #1A89BA",
"E  c #228BBA",
"W  c #2289B7",
"Q  c #3193BE",
"!  c #728487",
"~  c #788D92",
"^  c #6D8085",
"/  c #7E9EA9",
"(  c #6795B6",
")  c #6895B6",
"_  c #249ACE",
"`  c #2292C2",
"'  c #269ED3",
"]  c #2AA5DB",
"[  c #2CA8DE",
"{  c #2EADE5",
"}  c #2FB1EA",
"|  c #32B5ED",
" . c #35BBF5",
".. c #3CBDF5",
"X. c #31B6F0",
"o. c #589EC6",
"O. c #49ADD8",
"+. c #55A3CD",
"@. c #6DB6DB",
"#. c #7FBBDA",
"$. c #43BFF5",
"%. c #45C1F7",
"&. c #4CC2F5",
"*. c #53C4F5",
"=. c #5AC6F5",
"-. c #67C2EA",
";. c #63C8F4",
":. c #68CAF4",
">. c #74CDF4",
",. c #848588",
"<. c #839A9E",
"1. c #969798",
"2. c #9E9FA0",
"3. c #859BA0",
"4. c #8BA1A6",
"5. c #8EA5AA",
"6. c #96ADB3",
"7. c #AEAEAF",
"8. c #A5A5A7",
"9. c #B0AFAF",
"0. c #A4B7BB",
"q. c #B3B4B4",
"w. c #C0BEBE",
"e. c #ACC1B8",
"r. c #D9D084",
"t. c #D3D4A3",
"y. c #C3CBB3",
"u. c #CFD6BF",
"i. c #CFD3AA",
"p. c #99B7C1",
"a. c #A5BEC4",
"s. c #A9BFC5",
"d. c #A5BFCB",
"f. c #B0BFC2",
"g. c #ABC0C5",
"h. c #B3C4CA",
"j. c #B3CAD3",
"k. c #B9CED6",
"l. c #B6CED8",
"z. c #BED6DB",
"x. c #BFD5D2",
"c. c #8FC9E5",
"v. c #92D2EE",
"b. c #85D2F4",
"n. c #9AD7F2",
"m. c #A9DBF2",
"M. c #B4DFF2",
"N. c #B8DFF1",
"B. c #A0D2E9",
"V. c #BEE3F3",
"C. c #CFCFCF",
"Z. c #C5C4C4",
"A. c #D5DBC7",
"S. c #C0D3D5",
"D. c #C0D3DB",
"F. c #C3D9DD",
"G. c #CCD9DA",
"H. c #D4D4D4",
"J. c #DBDBDB",
"K. c #D9D8D7",
"L. c #C4D5C4",
"P. c #CCDDE3",
"I. c #CFDFE8",
"U. c #C5DDE6",
"Y. c #D3DEE3",
"T. c #D0DFE8",
"R. c #D8DFE2",
"E. c #C6E1ED",
"W. c #D3E1E7",
"Q. c #D3E2E9",
"!. c #DDE8EB",
"~. c #CAE7F3",
"^. c #D2E8F1",
"/. c #E3E4E5",
"(. c #E4EAEC",
"). c #EFEEED",
"_. c #F0EEED",
"`. c #EBEFF1",
"'. c #EAF0F2",
/* pixels */
"X X X X X X X X X X X X X X X X X X X X X X X X X X X X X X X X X X X X X X X X X X X X X X X X X X X X X X X X X X X X X X X X ",
"X X X X X X X X X X X X X X X X X X X X X X X X X X X X X X X X X X X X X X X X X X X X X X X X X X X X X X X X X X X X X X X X ",
"X X X X X X X X X X X X X X X X X X X o X X X X X X X X X X X X X X X X X X X X X X X X X X X X X X X X X X X X X X X X X X X X ",
"X X X X X X X X X X X X X X X X X X X X X X X X X X X X X X X X X X X X X X X X X X X X X X X X X X X X X X X X X X X X X X X X ",
"X X X X X X X X X X X X X X X X X X X X X X X X X X X X X X X X X X X X X X X X X X X X X X X X X X X X X X X X X X X X X X X X ",
"X X X X X X X X X X X X X X X X X X X X X X X X X X X X X X X X X X X X X X X X X X X X X X X X X X X X X X X X X X X X X X X X ",
"X X X X X X X X X X X X X X X X X X X X X X X X X X X X X X X X X X X X X X X X X X X X X X X X X X X X X X X X X X X X X X X X ",
"X X X X X X X X X X X X X X X X X X X X X X X X X X X X X X X X X X X X X X X X X X X X X X X X X X X X X X X X X X X X X X X X ",
"X X X X X X X X X X X X X X X X X X X X X X X X X X X X X X X X X X X X X X X X X X X X X X X X X X X X X X X X X X X X X X X X ",
"X X X X X X X X X X X X X X X X X X X X X X X X X X X X X X X X X X X X X X X X X X X X X X X X X X X X X X X X X X X X X X X X ",
"X X X X X X X X X X X X X X X X X X X X X X X X X X X X X X X X X X X X X X X X X X X X X X X X X X X X X X X X X X X X X X X X ",
"X X X X X X X X X X X X X X X X X X X X X X X X X X X X X X X X X X X X X X X X X X X X X o X X X X X X X X X X X X X X X X X X ",
"X X X X X X X X X X X X X X X X X X X X X X X X X X X X X X X X X X X X X X X X X X X X X @ @ X X X X X X X X X X X X X X X X X ",
"X X X X X X X X X X X X X X X X X X X X X X X X X X X X X X X X X X X X X X X X X X X X X @ @ X X X X X X X X X X X X X X X X X ",
"X X X X X X X X X X X X X X X X X X X X X X X X X X X X X X X X X X X X X X X X X X X X X X X X X X X X X X X X X X X X X X X X ",
"X X X X X X X X X X X X X X X X X X X X X X X X X X X q 7.C.C.C.C.C.C.q.q X X X X X X X X X X X X X X X X X X X X X X X X X X X ",
"X X X X X X X X X X X X X X X X X X X X X X X X X X X s K._.).)._._.).K.s X X X X X X X X X X X X X X X X X X X X X X X X X X X ",
"X X X X X X X X X X X X X X X X X X X X X X X X X X X f J.~.V.V.V.V.~.J.U X X X X X X X X X X X X X X X X X X X X X X X X X X X ",
"X X X X X X X X X X X X X X X X X X X X X X X X X X X 1.R.:.$.$.$...:.R.1.X X X X X X X X X X X X X X X X X X X X X X X X X X X ",
"X X X X X X X X X X X X X X X X X X X X X X X X X X X 2.W.=. . . . .=.T.8.. X X X X X X X X X X X X X X X X X X X X X X X X X X ",
"X X X X X X X X X X X X X X X X X X X X X X X X X X # q.E.&. . . . .$.Q.q.q X X X X X X X X X X X X X X X X X X X X X X X X X X ",
"X X X X X X X o X X X X X X X X X X X X X X X X X X q w.E.%. . . . .$.E.Z.e X X X X X X X X X X X X X X X X X X X X X X X X X X ",
"X X X X X X O # o X X X X X X X X X X X X X X X X X t C.V. . . . . . .M.H.t X X X X X X X X X X X X X X X X X X X X X X X X X X ",
"X X X X X X X X X X X X X X X X X X X X X X X X X X p K.m. . . . . . .m.J.s X X X X X X X X X X X X X X X X X X X X X X X X X X ",
"X X X X X X X X X X X X X X X X X X X X X X X X X X f J.n. . . ... . .n.R.U X X X X X X X X X X X X X X X X X X X X X X X X X X ",
"X X X X X X X X X X X X X X X X X X X X X X X X X X ,./.b. . . . . . .b./.1.o X X X X X X X X X X X X X X X X X X X X X X X X X ",
"X X X X X X X X X X X X X X X X X X X X X X X X X o 1.(.>. . . . . . .>./.7.@ X X X X X X X X X X X X X X X X X X X X X X X X X ",
"X X X X X X X X X X X X X X X X X X X X X X X X X # 7.(.;. . . . ... .;.(.q.3 X X X X X X X X X X X X X X X X X X X X X X X X X ",
"X X X X X X X X X X X X X X X X X X X X X X X X q I g.!.=. . . . . . .=.!.f.! e X X X X X X X X X X X X X X X X X X X X X X X X ",
"X X X X X X X X X X X X X X X X X X X X X X , a 4.g.F.^.*. . . . . . .&.^.F.s.5.d 3 X X X X X X X X X X X X X X X X X X X X X X ",
"X X X X X X X > : ; X X X X X X X X X X @ p / a.z.z.P.~.$. . . . . . .$.~.Y.z.z.a.<.p < X X X X X X X X X X ; : > X X X X X X X ",
"X X X X X X X G E G : X X X X X X X o r ~ 0.k.Y.P.z.W.E.%.%.%.%.%.%.%.%.V.Y.z.P.I.z.0.~ r O X X X X X X X : G T H X X X X X X X ",
"X X X X X X X Y { ' F O X X X X o w ^ 6.k.P.W.W.P.z.!.V.+.) ) ) ( ( ) o.M.!.z.F.W.Q.Y.k.6.^ e o X X X X X F ' { Y X X X X X X X ",
"X X X X X X X J { | T 7 o X X < d 5.h.G.W.W.W.W.z.z./.n.L 1 1 1 1 1 1 y B.(.z.P.W.W.Q.Q.P.h.5.d 3 X X o 5 R } { J X X X X X X X ",
"X X X X X X X H [  .O./ I r p <.g.G.W.W.W.W.W.W.F.z.(.c.y 1 1 1 1 1 1 y c.(.z.F.W.Q.W.Q.W.W.G.s./ p r I / O. .{ H X X X X X X X ",
"X X X X X X X F ]  .-.h.a.6.0.D.W.Q.W.W.W.W.W.W.F.F.`.#.i 1 1 1 1 1 1 i #.`.F.z.Y.W.W.W.W.W.Q.Y.S.0.6.a.j.-. .] F X X X X X X X ",
"X X X X X X X 6 '  .-.k.k.k.Y.Q.W.W.W.W.W.W.W.W.z.P.`.@.L u u u u u u L @.`.F.F.P.W.W.W.Q.W.W.W.Y.P.k.k.k.-. .' 6 X X X X X X X ",
"X X X X X X X 8 _ X.-.l.k.D.Q.Q.W.W.W.W.W.W.W.W.z.E.`.;. . . . . . . .X.;.`.P.z.P.W.W.W.W.W.W.W.Q.Y.z.k.l.-.X._ 9 X X X X X X X ",
"X X X X X X X 7 ` X.-.l.k.D.Y.W.W.W.W.W.W.W.W.E.x.P.`.;. . . . . . . . .;.`.P.z.P.W.Q.W.W.W.Q.W.Q.Q.z.k.l.-.X.` 7 X X X X X X X ",
"X X X X X X X 4 E X.-.l.k.D.Q.Q.W.W.W.W.W.W.W.W.z.P.`.;. . . . . . . . .;.`.F.z.I.W.W.W.W.W.W.Q.T.Y.D.k.l.-.X.E : X X X X X X X ",
"X X X X X X X : Y | -.l.l.D.T.Q.Q.W.W.Q.W.W.W.W.z.P.`.;.X. . . . . ... .;.`.G.z.W.W.W.W.Q.Q.W.Q.T.T.z.k.l.-.X.J : X X X X X X X ",
"X X o O X X X + J } -.l.k.D.Y.G.I.W.Q.Q.Q.W.W.Y.z.P.`.;. . . . . . . . .;.`.W.z.P.W.W.W.Q.Q.T.Y.Y.P.D.k.l.-.X.J > X X X X X X X ",
"X X X X X X X + G { -.l.k.D.A.A A r.i.L.G.P.I.I.z.P.`.;. . . . . . . . .;.`.P.z.P.E.P.G.L.t.r.S A C.z.k.l.-.{ G + X X X X X X X ",
"X X X X X X X X F ] O.p.j.z.A.n b N N B V A D t.x.P.`.;. . . . . . . .X.=.'.P.x.i.D A V B N N M n A.z.j.p.O.] F o X X X X X X X ",
"X X X X X X X X 9 ' E P 4.s.y.n b N N M b M N C L.P.`.;. ... . . . . . .;.'.P.x.Z N M b M N N b n i.s.4.P W _ 6 X X X X X X X X ",
"X X X X X X X X 9 R H O q d h k z x v v v b N C L.I.`.;. . . . . . . . .;.`.E.x.Z N M v v v x z k h d q X F R 6 X X X X X X X X ",
"X X X X X X X X : 8 : X X o o   & * % g l j c m e.S.`.;. . . . . . . . .;.`.S.e.m c j l g % $ &   @ X X X ; 6 : X X X X X X X X ",
"X X X X X X X X X X X X X X X X X X X X . & $ - f 0.(.:. . . . . ... . .:./.q.! - = &   o X X X X X X X X X X X X X X X X X X X ",
"X X X X X X X X X X X X X X X X X X X X X X X X X f H.m... . . . . . ...m.A.f X X X X X X X X X X X X X X X X X X X X X X X X X ",
"X X X X X X X X X X X X X X X X X X X X X X X X X , 2.J.>. . . . . . .>.Y.2.@ X X X X X X X X X X X X X X X X X X X X X X X X X ",
"X X X X X X X X X X X X X X X X X X X X X X X X X X t Z.U.&. . . . .&.U.Z.t X X X X X X X X X X X X X X X X X X X X X X X X X X ",
"X X X X X X X X X X X X X X X X X X X X X X X X X X o U K.n.| | X.X.v.H.,.X X X X X X X X X X X X X X X X X X X X X X X X X X X ",
"X X X X X X X X X X X X X X X X X X X X X X X X X X X 3 9.h.` E R E d.7.1 X X X X X X X X X X X X X X X X X X X X X X X X X X X ",
"X X X X X X X X X X X X X X X X X X X X X X X X X X X X X X X X @ < X X X X X X X X X X X X X X X X X X X X X X X X X X X X X X ",
"X X X X X X X X X X X X X X X X X X X X X X X X X X X X X X X X @ @ X X X X X X X X X X X X X X X X X X X X X X X X X X X X X X ",
"X X X X X X X X X X X X X X X X X X X X X X X X X X X X X X X X X X X X X X X X X X X X X X X X X X X X X X X X X X X X X X X X ",
"X X X X X X X X X X X X X X X X X X X X X X X X X X X X X X X X X X X X X X X X X X X X X X X X X X X X X X X X X X X X X X X X ",
"X X X X X X X X X X X X X X X X X X X X X X X X X X X X X X X X X X X X X X X X X X X X X X X X X X X X X X X X X X X X X X X X ",
"X X X X X X X X X X X X X X X X X X X X X X X X X X X X X X X X X X X X X X X X X X X X X X X X X X X X X X X X X X X X X X X X ",
"X X X X X X X X X X X X X X X X X X X X X X X X X X X X X X X X X X X X X X X X X X X X X X X X X X X X X X X X X X X X X X X X ",
"X X X X X X X X X X X X X X X X X X X X X X X X X X X X X X X X X X X X X X X X X X X @ X X X X X X X X X X X X X X X X X X X X ",
"X X X X X X X X X X X X X X X X X X X X X X X X X X X X X X X X X X X X X X X X X X X X X X X X X X X X X X X X X X X X X X X X ",
"X X X X X X X X X X X X X X X X X X X X X X X X X X X X X X X X X X X X X X X X X X X X X X X X X X X X X X X X X X X X X X X X ",
"X X X X X X X X X X X X X X X X X X X X X X X X X X X X X X X X X X X X X X X X X X X X X X X X X X X X X X X X X X X X X X X X "
};
