/* XPM */
static char *b5df847a964342bca378f15059c54910U8Ca7PmyDgLBoQ22[] = {
/* columns rows colors chars-per-pixel */
"64 64 179 2 ",
"   c #38372E",
".  c #37352E",
"X  c #2A2D33",
"o  c #2D3036",
"O  c #2C323A",
"+  c #27353F",
"@  c #31353B",
"#  c #35393F",
"$  c #61541F",
"%  c #7A6717",
"&  c #4B4527",
"*  c #5E5220",
"=  c #605420",
"-  c #716731",
";  c #273944",
":  c #263D4B",
">  c #273641",
",  c #393D43",
"<  c #373E44",
"1  c #4A3B53",
"2  c #3D464B",
"3  c #394147",
"4  c #254455",
"5  c #314F5E",
"6  c #1F5C7A",
"7  c #224C61",
"8  c #20556E",
"9  c #215771",
"0  c #1F607F",
"q  c #42454A",
"w  c #43494E",
"e  c #454C51",
"r  c #495459",
"t  c #55575C",
"y  c #455474",
"u  c #455C7D",
"i  c #464A68",
"p  c #576368",
"a  c #5F6E74",
"s  c #67686C",
"d  c #627378",
"f  c #747578",
"g  c #94790F",
"h  c #788579",
"j  c #BC9804",
"k  c #A88D16",
"l  c #AA8B08",
"z  c #C09A03",
"x  c #D4A800",
"c  c #CFA501",
"v  c #E2B501",
"b  c #EDBD00",
"n  c #E1BB1A",
"m  c #CDB12D",
"M  c #F4C300",
"N  c #FDCB02",
"B  c #ECC319",
"V  c #DFC138",
"C  c #F2CE2C",
"Z  c #ECCF3D",
"A  c #DCC759",
"S  c #D9C660",
"D  c #DCD07B",
"F  c #1E6688",
"G  c #1D739A",
"H  c #1D7097",
"J  c #1C7BA5",
"K  c #445F82",
"L  c #416387",
"P  c #5C7C87",
"I  c #6B7D82",
"U  c #7B7D80",
"Y  c #1C84B2",
"T  c #1F88B7",
"R  c #1A89BA",
"E  c #228BBA",
"W  c #2289B7",
"Q  c #3193BE",
"!  c #728487",
"~  c #788D92",
"^  c #6D8085",
"/  c #7E9EA9",
"(  c #6795B6",
")  c #6895B6",
"_  c #249ACE",
"`  c #2392C2",
"'  c #269ED3",
"]  c #2AA5DB",
"[  c #2CA8DE",
"{  c #2EADE5",
"}  c #2FB1EA",
"|  c #32B5ED",
" . c #35BBF5",
".. c #3CBDF5",
"X. c #31B6F0",
"o. c #589EC6",
"O. c #49ADD8",
"+. c #55A3CD",
"@. c #6DB6DB",
"#. c #7FBBDA",
"$. c #43BFF5",
"%. c #45C1F7",
"&. c #4CC2F5",
"*. c #53C4F5",
"=. c #5AC6F5",
"-. c #67C2EA",
";. c #63C8F4",
":. c #68CAF4",
">. c #74CDF4",
",. c #848588",
"<. c #839A9E",
"1. c #969798",
"2. c #9E9FA0",
"3. c #859BA0",
"4. c #8BA1A6",
"5. c #8EA5AA",
"6. c #96ADB3",
"7. c #AEAEAF",
"8. c #A5A5A7",
"9. c #B0AFAF",
"0. c #A4B7BB",
"q. c #B3B4B4",
"w. c #C0BEBE",
"e. c #ACC1B8",
"r. c #D9D084",
"t. c #D3D4A3",
"y. c #C3CBB3",
"u. c #CFD6BF",
"i. c #CFD3AA",
"p. c #99B7C1",
"a. c #A5BEC4",
"s. c #A9BFC5",
"d. c #A5BFCB",
"f. c #B0BFC2",
"g. c #ABC0C5",
"h. c #B3C4CA",
"j. c #B3CAD3",
"k. c #B9CED6",
"l. c #B6CED8",
"z. c #BED6DB",
"x. c #BFD5D2",
"c. c #8FC9E5",
"v. c #92D2EE",
"b. c #85D2F4",
"n. c #9AD7F2",
"m. c #A9DBF2",
"M. c #B4DFF2",
"N. c #B8DFF1",
"B. c #A0D2E9",
"V. c #BEE3F3",
"C. c #CFCFCF",
"Z. c #C5C4C4",
"A. c #D5DBC7",
"S. c #C0D3D5",
"D. c #C0D3DB",
"F. c #C3D9DD",
"G. c #CCD9DA",
"H. c #D4D4D4",
"J. c #DBDBDB",
"K. c #D9D8D7",
"L. c #C4D5C4",
"P. c #CCDDE3",
"I. c #CFDFE8",
"U. c #C5DDE6",
"Y. c #D3DEE3",
"T. c #D0DFE8",
"R. c #D8DFE2",
"E. c #C6E1ED",
"W. c #D3E1E7",
"Q. c #D3E2E9",
"!. c #DDE8EB",
"~. c #CAE7F3",
"^. c #D2E8F1",
"/. c #E3E4E5",
"(. c #E4EAEC",
"). c #EFEEED",
"_. c #F0EEED",
"`. c #EBEFF1",
"'. c #EAF0F2",
/* pixels */
"X X X X X X X X X X X X X X X X X X X X X X X X X X X X X X X X X X X X X X X X X X X X X X X X X X X X X X X X X X X X X X X X ",
"X X X X X X X X X X X X X X X X X X X X X X X X X X X X X X X X X X X X X X X X X X X X X X X X X X X X X X X X X X X X X X X X ",
"X X X X X X X X X X X X X X X X X X X @ X X X X X X X X X X X X X X X X X X X X X X X X X X X X X X X X X X X X X X X X X X X X ",
"X X X X X X X X X X X X X X X X X X X X X X X X X X X X X X X X X X X X X X X X X X X X X X X X X X X X X X X X X X X X X X X X ",
"X X X X X X X X X X X X X X X X X X X X X X X X X X X X X X X X X X X X X X X X X X X X X X X X X X X X X X X X X X X X X X X X ",
"X X X X X X X X X X X X X X X X X X X X X X X X X X X X X X X X X X X X X X X X X X X X X X X X X X X X X X X X X X X X X X X X ",
"X X X X X X X X X X X X X X X X X X X X X X X X > G Y J G F 6 8 4 4 : + + O X X X X X X X X X X X X X X X X X X X X X X X X X X ",
"X X X X X X X X X X X X X X X X X X X X X X X X : T { { [ ] ' _ ` R Y J G F 6 8 : X X X X X X X X X X X X X X X X X X X X X X X ",
"X X X X X X X X X X X X X X X X X X X X X X X X > G ' |  . . . . .X.X.} { ] ' Y 6 X X X X X X X X X X X X X X X X X X X X X X X ",
"X X X X X X X X X X X X X X X X X X X X X X X X X : F W O.-.-.-.-.-.-.-.-.O.T F ; X X X X X X X X X X X X X X X X X X X X X X X ",
"X X X X X X X X X X X X X X X X X X X X X X X X X X O 7 / j.l.l.l.l.l.l.l.p.P O X X X X X X X X X X X X X X X X X X X X X X X X ",
"X X X X X X X X X X X X X X X X X X X X X X X X X X X X I a.k.k.k.k.k.k.k.j.4.w X X X X X o X X X X X X X X X X X X X X X X X X ",
"X X X X X X X X X X X X X X X X X X X X X X X X X X X X r 6.k.z.z.D.z.z.D.D.f.d X X X X X , @ X X X X X X X X X X X X X X X X X ",
"X X X X X X X X X X X X X X X X X X X X X X X X X X X X p 0.P.Y.Y.T.Y.Y.A.A.y.h X X X X X O O X X X X X X X X X X X X X X X X X ",
"X X X X X X X X X X X X X X X X X X X X X X X X X X X 3 3.F.Q.W.W.W.Q.P.A n n k   X X X X X X X X X X X X X X X X X X X X X X X ",
"X X X X X X X X X X X X X X X X X X X X X X X X X X X d g.W.W.W.W.W.W.I.S b b z & X X X X X X X X X X X X X X X X X X X X X X X ",
"X X X X X X X X X X X X X X X X X X X X X X X X X X e 5.F.Q.W.W.W.W.W.W.r.N N x * X X X X X X X X X X X X X X X X X X X X X X X ",
"X X X X X X X X X X X X X X X X X X X X X X X X o O ^ h.W.Q.W.Q.W.W.W.W.t.N N v % X X X X X X X X X X X X X X X X X X X X X X X ",
"X X X X X X X X X X X X X X X X X X X X X X X X X r 6.P.Q.W.W.W.W.W.W.W.A.B M v g o X X X X X X X X X X X X X X X X X X X X X X ",
"X X X X X X X X X X X X X X X X X X X X X X X X # ~ k.W.W.W.W.W.W.W.W.W.G.V b v l   X X X X X X X X X X X X X X X X X X X X X X ",
"X X X X X X X X X X X X X X X X X X X X X X X X p 0.W.W.W.W.W.W.W.W.W.W.W.A M b j & X X X X X X X X X X X X X X X X X X X X X X ",
"X X X X X X X o X X X X X X X X X X X X X X X 3 <.S.W.W.W.W.W.W.W.W.W.W.W.D N N c $ X X X X X X X X X X X X X X X X X X X X X X ",
"X X X X X X O # o X X X X X X X X X X X X X o d s.W.W.W.W.W.W.E.P.E.P.P.E.t.Z Z m - X X X X X X X X X X X X X X X X X X X X X X ",
"X X X X X X X X X X X X X X X X X X X X X X e 5.S.P.F.F.F.z.z.z.z.z.z.z.x.S.S.S.g.! o X X X X X X X X X X X X X X X X X X X X X ",
"X X X X X X X X X X X X X X X X X o X o @ w ! a.z.z.z.z.z.U.E.G.P.P.G.P.P.G.P.E.D.0.f # X X X X X X X X X X X X X X X X X X X X ",
"X X X X X X X X X X X X X @ , e t s ,.1.8.q.h.F.Y.W.!.(.^.'.`.`.`.`.`.`.'.'.`.`.`./.H.2.t X X X X X X X X X X X X X X X X X X X ",
"X X X X X X X X X w s U 1.8.q.Z.C.K.J././.(.!.^.~.V.M.B.c.p.@.;.;.;.;.=.;.=.;.;.;.:.m.R.Z.,.q X X X X X X X X X X X X X X X X X ",
"X X X X X X X X X q.K.J.R.Q.E.E.N.m.n.b.>.;.=.*.$.%.o.y i i L |  . . . . . . . . . ...>.U.K.7.X X X X X X X X X X X X X X X X X ",
"X X X X X X X X X C.`.~.:.=.&.$... . . . . . . . .%.) 1 1 1 u  . . . . . . . . . . . . .&.v.d.X X X X X X X X X X X X X X X X X ",
"X X X X X X X X X C.`.V... . . . . . ... . . . . .%.( 1 1 1 u  . . ... . . . . . . ... . .X.E X X X X X X X X X X X X X X X X X ",
"X X X X X X X X X C._.E.$. . . ... . . . . . . . .%.) 1 1 1 u  . . . . . . . . . . . . . .| T X X X X X X X X X X X X X X X X X ",
"X X X X X X X X X C._.V.$. . . . . . . . . . . . .%.) 1 1 1 u  ... . . ... . . . . . . . .| T X X X X X X X X X X X X X X X X X ",
"X X X X X X X X X C._.V... . . . . . . . . . . . .%.( 1 1 1 u X. . . . . . . . . . . . . .| ` o X X X X X X X X X X X X X X X X ",
"X X X X X X X X X C.).^.:.*.&.$... . . . . . . . .%.( 1 1 1 u  . . . . . . . . . . . . .&.v.h.X X X X X X X X X X X X X X X X X ",
"X X X X X X X X X 7.J.J.R.W.W.V.V.m.n.b.>.;.=.&.$.%.+.K y i L  . . . . . . . . . . ...>.E.K.7.X X X X X X X X X X X X X X X X X ",
"X X X X X X X X X w s f ,.8.q.w.C.H.J././.(.!.^.~.V.V.n.c.#.@.;.:.:.=.;.;.;.;.:.;.:.m.Y.y.,.2 X X X X X X X X X X X X X X X X X ",
"X X X X X X X X X X X X X X # q t p f ,.1.7.g.F.W.W.!./.`.`.'.'.`.`.'.'.`.`.`.`.(./.H.2.t o X X X X X X X X X X X X X X X X X X ",
"X X X X X X X X X X X X X X X X X X X X o # ^ g.z.z.z.z.z.F.U.G.F.P.P.G.F.W.G.U.x.0.f # X X X X X X X X X X X X X X X X X X X X ",
"X X X X X X X X X X X X X X X X X X X X X X 2 4.x.W.F.F.z.F.z.z.F.z.z.z.z.x.L.L.q.h X X X X X X X X X X X X X X X X X X X X X X ",
"X X X X X X X X X X X X X X X X X X X X X X o a a.Q.Q.Q.W.W.W.W.W.W.W.W.E.t.C C m - X X X X X X X X X X X X X X X X X X X X X X ",
"X X X X X X X X X X X X X X X X X X X X X X X , <.k.W.W.W.Q.W.W.W.W.W.W.W.D N M c * X X X X X X X X X X X X X X X X X X X X X X ",
"X X o O X X X X X X X X X X X X X X X X X X X X p 0.Y.W.W.W.W.W.W.W.W.W.G.A M M j & X X X X X X X X X X X X X X X X X X X X X X ",
"X X X X X X X X X X X X X X X X X X X X X X X X @ ~ k.Q.W.W.W.W.W.W.W.W.G.V M v l . X X X X X X X X X X X X X X X X X X X X X X ",
"X X X X X X X X X X X X X X X X X X X X X X X X X r 6.P.W.W.W.Q.W.W.W.W.A.B M v g o X X X X X X X X X X X X X X X X X X X X X X ",
"X X X X X X X X X X X X X X X X X X X X X X X X X @ I h.Q.Q.Q.W.W.W.W.W.t.N N v % X X X X X X X X X X X X X X X X X X X X X X X ",
"X X X X X X X X X X X X X X X X X X X X X X X X X X w 5.G.Q.W.W.Q.W.W.I.r.N N x * X X X X X X X X X X X X X X X X X X X X X X X ",
"X X X X X X X X X X X X X X X X X X X X X X X X X X X d s.Y.Q.W.W.W.W.W.S b v j & X X X X X X X X X X X X X X X X X X X X X X X ",
"X X X X X X X X X X X X X X X X X X X X X X X X X X X , <.D.Q.T.W.W.W.P.A B n k   X X X X X X X X X X X X X X X X X X X X X X X ",
"X X X X X X X X X X X X X X X X X X X X X X X X X X X X p p.P.T.T.Y.T.T.A.A.y.h o X X X X X X X X X X X X X X X X X X X X X X X ",
"X X X X X X X X X X X X X X X X X X X X X X X X X X X X e 6.k.D.z.D.D.D.D.D.d.d X X X X X X X X X X X X X X X X X X X X X X X X ",
"X X X X X X X X X X X X X X X X X X X X X X X X X X X o I a.k.k.k.k.k.k.k.j.4.2 X X X X X X X X X X X X X X X X X X X X X X X X ",
"X X X X X X X X X X X X X X X X X X X X X X X X X X X 5 / j.l.j.l.l.l.k.k.p.P > X X X X X X X X X X X X X X X X X X X X X X X X ",
"X X X X X X X X X X X X X X X X X X X X X X X X X : F Y O.-.-.-.-.-.-.-.-.O.W F : X X X X X X X X X X X X X X X X X X X X X X X ",
"X X X X X X X X X X X X X X X X X X X X X X X X > J ' X. . . . . .X.| } { { _ Y 8 X X X X X X X X X X X X X X X X X X X X X X X ",
"X X X X X X X X X X X X X X X X X X X X X X X X : T { { { ] ' _ ` T J J H F 9 9 ; X X X X X X X X X X X X X X X X X X X X X X X ",
"X X X X X X X X X X X X X X X X X X X X X X X X > G Y J H F 6 8 7 4 : ; + O O X o X X X X X X X X X X X X X X X X X X X X X X X ",
"X X X X X X X X X X X X X X X X X X X X X X X X X X X X X X X X X X X X X X X X X X X X X X X X X X X X X X X X X X X X X X X X ",
"X X X X X X X X X X X X X X X X X X X X X X X X X X X X X X X X X X X X X X X X X X X X X X X X X X X X X X X X X X X X X X X X ",
"X X X X X X X X X X X X X X X X X X X X X X X X X X X X X X X X X X X X X X X X X X X X X X X X X X X X X X X X X X X X X X X X ",
"X X X X X X X X X X X X X X X X X X X X X X X X X X X X X X X X X X X X X X X X X X X X X X X X X X X X X X X X X X X X X X X X ",
"X X X X X X X X X X X X X X X X X X X X X X X X X X X X X X X X X X X X X X X X X X X o X X X X X X X X X X X X X X X X X X X X ",
"X X X X X X X X X X X X X X X X X X X X X X X X X X X X X X X X X X X X X X X X X X X X X X X X X X X X X X X X X X X X X X X X ",
"X X X X X X X X X X X X X X X X X X X X X X X X X X X X X X X X X X X X X X X X X X X X X X X X X X X X X X X X X X X X X X X X ",
"X X X X X X X X X X X X X X X X X X X X X X X X X X X X X X X X X X X X X X X X X X X X X X X X X X X X X X X X X X X X X X X X "
};
