/* XPM */
static char *_b7c9abd3d3c4f549e70c610486d7092XpVTjOXEXO6ukGQi[] = {
/* columns rows colors chars-per-pixel */
"64 64 206 2 ",
"   c #0C2535",
".  c #0E2837",
"X  c #0F2A38",
"o  c #132734",
"O  c #182733",
"+  c #142935",
"@  c #1B2934",
"#  c #112D3A",
"$  c #192E39",
"%  c #14333D",
"&  c #1B323C",
"*  c #19393B",
"=  c #242B33",
"-  c #2A2D33",
";  c #273036",
":  c #2B3135",
">  c #22353D",
",  c #2B3339",
"<  c #303A37",
"1  c #163640",
"2  c #1A3740",
"3  c #173942",
"4  c #1A3D44",
"5  c #1B3F48",
"6  c #243D43",
"7  c #2B3E43",
"8  c #1B4147",
"9  c #1C4348",
"0  c #1F484C",
"q  c #224346",
"w  c #2D4346",
"e  c #224549",
"r  c #23464A",
"t  c #294749",
"y  c #2D4749",
"u  c #2B4649",
"i  c #20494E",
"p  c #234A4D",
"a  c #2D494A",
"s  c #224947",
"d  c #3E4747",
"f  c #344A4A",
"g  c #364849",
"h  c #26514B",
"j  c #2D5C4C",
"k  c #2B564A",
"l  c #3A564A",
"z  c #234C51",
"x  c #244C52",
"c  c #294D51",
"v  c #265155",
"b  c #295555",
"n  c #2E5C53",
"m  c #295459",
"M  c #2D5A5D",
"N  c #265358",
"B  c #315F56",
"V  c #315C5C",
"C  c #3B5D5F",
"Z  c #385555",
"A  c #356849",
"S  c #3C724D",
"D  c #3F784F",
"F  c #326255",
"G  c #396C53",
"H  c #38675B",
"J  c #3D745C",
"K  c #3D7451",
"L  c #2F5C61",
"P  c #305F62",
"I  c #315E62",
"U  c #385F62",
"Y  c #2F6064",
"T  c #346467",
"R  c #356666",
"E  c #346466",
"W  c #3A6262",
"Q  c #376965",
"!  c #396D63",
"~  c #346568",
"^  c #346568",
"/  c #3C6C6B",
"(  c #376869",
")  c #3D7262",
"_  c #3E716C",
"`  c #434D4B",
"'  c #4A4F4B",
"]  c #46514E",
"[  c #4D524D",
"{  c #47584D",
"}  c #51534D",
"|  c #515B4D",
" . c #4B5651",
".. c #455954",
"X. c #485B55",
"o. c #445B59",
"O. c #475552",
"+. c #505550",
"@. c #51624E",
"#. c #526B4E",
"$. c #51724E",
"%. c #507F4D",
"&. c #586955",
"*. c #427253",
"=. c #40775E",
"-. c #427B5C",
";. c #4A725F",
":. c #517A51",
">. c #486055",
",. c #416365",
"<. c #427A61",
"1. c #41736C",
"2. c #467A6A",
"3. c #487564",
"4. c #467C70",
"5. c #487F72",
"6. c #537B78",
"7. c #607D70",
"8. c #47844E",
"9. c #52834F",
"0. c #528C4F",
"q. c #51944F",
"w. c #4C8B54",
"e. c #46805D",
"r. c #48855B",
"t. c #4E8C5A",
"y. c #498255",
"u. c #528C51",
"i. c #538B59",
"p. c #4F9150",
"a. c #529451",
"s. c #559952",
"d. c #589D57",
"f. c #579B5B",
"g. c #5A9E59",
"h. c #55955A",
"j. c #5EA45D",
"k. c #60A65F",
"l. c #4F896C",
"z. c #4B8466",
"x. c #528B69",
"c. c #559565",
"v. c #59966D",
"b. c #5B8E71",
"n. c #5A9778",
"m. c #5D9D76",
"M. c #4A8272",
"N. c #6E9A6E",
"B. c #649A7F",
"V. c #649272",
"C. c #5FA363",
"Z. c #5FA071",
"A. c #64AA63",
"S. c #64A96B",
"D. c #6AB26B",
"F. c #69AB77",
"G. c #75AE70",
"H. c #6EB477",
"J. c #76BC7B",
"K. c #79C47B",
"L. c #86B37D",
"P. c #678D84",
"I. c #7D9894",
"U. c #79B484",
"Y. c #7DC784",
"T. c #849F96",
"R. c #83AC80",
"E. c #86BC89",
"W. c #87A997",
"Q. c #9DBCA6",
"!. c #ABB9B0",
"~. c #84CE8F",
"^. c #84CA86",
"/. c #89D78E",
"(. c #87D58B",
"). c #8EDC93",
"_. c #85D092",
"`. c #92DE95",
"'. c #92D59A",
"]. c #ADCA9E",
"[. c #93E197",
"{. c #96E69B",
"}. c #97E89C",
"|. c #99E99D",
" X c #9BE79E",
".X c #9DCCA0",
"XX c #ACD7A8",
"oX c #BBCBB0",
"OX c #A5C9A2",
"+X c #9DE9A0",
"@X c #A2E8A3",
"#X c #ACEAAB",
"$X c #B1EAAE",
"%X c #BEECB7",
"&X c #CEDABA",
"*X c #C7ECBD",
"=X c #D1D4C8",
"-X c #CCEEC0",
";X c #DAECC8",
":X c #D2EFC5",
">X c #DEF0CD",
",X c #D7F0C8",
"<X c #E8F2D4",
"1X c #F5F3DD",
"2X c #E0E4CA",
"3X c #FEF5E4",
/* pixels */
"- - - - - - - - : - - - - - - - - - - - - - - - - - - - - - - - - - - - - - - - - - - - - - - - - - - - - - - - - - - - - - - - ",
"- - - - - - - - - - - - - - - - - - - - - - - - - - - - - - - - - - - - - - - - - - - - - - - - - - - - - - - - - - - - - - - - ",
"- - - - - - - : - - - - - - - - - - - , - - - - - - - - - - - = - - - - - - - - - - - - - - - - - - - - - - - - - - - - - - - - ",
"- - = @ @ O O = - - - - - - - - - @ O o O @ - - - O                 O = - - - - - - - = - = - - - - - - = = = - - - - - - - - - ",
"- - = O o   o o @ - - - - - - - = @ o     O = @ O .       .             O O @ = - = O       O = - - - - = o o O = = = - - - - - ",
"- - =   + + *   O - - - - - - - =           O +         # 1 1 1 #     * .   O @ = o           # = - - - =         o O - - - - - ",
"- - - O O       @ - - = @ = - =                       . 1 8 8 8 8 #   .     . # 1 3 % X . . . X # % > > @ o         @ - - - - - ",
"- - - - = O   o = - - O o   o               . . .   # 1 8 9 9 8 r 2 . X % 1 5 z 0 z z 8 8 2 3 2 # & r w & % . %     @ - - - - - ",
"- - - - - - = = = - - @ o         . X       X 3 % 3 8 9 9 8 9 9 9 y q 8 9 9 9 9 9 9 9 9 8 9 9 t y 8 9 t 1 X   .       O - - - - ",
"- - - - = - = - - - - =           X 1 % .   3 8 9 9 9 9 9 9 9 9 9 9 9 9 9 9 9 9 8 9 0 9 9 9 9 8 9 9 8 8 %               @ - - - ",
"- - - - @ = - - - : : o           X % % . . 1 X 8 8 9 8 9 9 9 9 9 8 8 9 9 9 9 8 9 9 9 9 9 e 9 p e 9 e r %     # .       O = - - ",
"- - - - @ @ - , : < @     % k .                 1 8 9 9 9 8 9 8 9 9 9 9 9 9 9 9 8 9 9 9 9 r 9 B 0 9 r w 2 2 4 3 X       o = - - ",
"- - - - = - - - - = o     X 2       # X         # 8 8 9 9 9 9 9 9 9 9 8 9 9 0 c N 8 8 9 9 9 9 9 e 8 9 y t y e 8         O - - - ",
"- - - - - = O @ @ O O           X 1 9 8 1         1 9 8 9 8 9 9 8 9 9 9 9 9 8 U W 8 9 0 9 9 9 9 9 9 9 8 t y 2 #   o @ @ = - - - ",
"- - - - - O   o o o O         X 9 N N L Y z #     X 3 8 9 9 9 9 9 9 9 0 8 9 9 9 9 9 9 0 9 8 9 9 8 9 9 9 s q #     @ @ O = - - - ",
"- - - - -                   X z m L Y ~ ~ ~ x X % 3 8 3 3 8 9 9 i 9 i z 0 9 8 9 9 h 9 9 9 9 9 9 9 9 9 9 8 * #     o       = - - ",
"- - - - - O       # #   . X 0 T T T T T T R F 5 3 5 8 9 8 8 9 0 N 8 4 1 8 9 9 8 9 F 9 9 9 9 8 9 9 9 9 9 9 4 .           o = - - ",
"- - - - - =   . i z #   X 1 L ~ T T T R T ) h.n 8 8 8 8 8 8 0 L L 9 # . . 4 9 8 9 e e 9 8 9 9 9 9 8 8 9 9 1             o = - - ",
"- - - - - - O 5 L E M 5 4 4 m T T ! =.Q ~ R x.C.D G n h 0 9 z ~ ~ L 4 1 . . 1 3 2 w t s 9 9 9 9 9 8 s y * o             o = - - ",
"- - - - - - $ 9 b T T T m F l.~ R e.) ^ T ~ Q =.x.S.m.=.H J B ! ~ m 0 z i 9 % 1 X X % 8 9 9 8 9 9 8 w , O o             O - - - ",
"- - - - = O % 9 M ^ T T T / 5.T / n.T ^ T E T T E R R E R Q ! =.( L 0 9 9 p p 3 1 X X 8 8 8 9 v % + = - = o O @ O       = - - - ",
"- - - = O o # x m T T T T T T T 1.Q.6.P E E T T T E E R T T T T ~ L 9 9 8 0 8 X X X   1 8 8 9 0 .   @ = - - - - - O o o = = - - ",
"- - - = O     i M T R Q R T E / !.3X=XW.B.x.J ! E Y Q S.v.2.Q R E E z 8 9 N %     * X 3 8 8 8 8 1     @ - , : - - = O @ @ - - - ",
"- - - =     # 5 M T T R ! R E I.3X3X3X3X1X;X].J.W.b.h.f.A.D.f.B 8 N N B 0 v 4     X     8 9 9 8 5     @ = - - = = - - - - - - - ",
"- - - O   % 3 9 0 Y ~ ~ ~ ~ Y T.3X3X3X3X3X3X3X-X+X).K.C.q.q.C.1.8 8 9 p 9 9 8 % #       . 3 8 8 X     @ - - - - - - - - : = - - ",
"- -       X 4 9 m ~ T T ~ ( 5.oX3X3X3X3X3X3X3X>X+X+X{.K.q.q.G.n.N 0 9 9 9 9 t % . X #     % 3 # . # . O = = @ @ = = - - = O - - ",
"- -       . 5 0 Y T T T ~ E.-X3X3X3X;X;X:X,X>X*X{.{.{.Y.a.q.G.'.n.Q M p e 9 q   * . *     X 3 3 8 3 % # O O + o O o         - - ",
"- - X       4 9 L T ! Q ~ F.'.$X-X%X$X$X{.).`.).).K.K.j.a.a.A.}.$XE.s.y.V e q + #   #   X % 8 9 8 4 # %   .     o           - - ",
"- -         # 8 z T ~ E E E U.+X{.[.).K.n./ Y H e.e.-.-.J c.(.{.$X<X].3.m 9 y & X       # 3 8 9 8 8 3 5                     - - ",
"- -           X 5 M L J J E W.#X{.Y.j.J m 0 8 8 p E T T M./.}.*X<X3X3XP.z 8 8 5 1 X     % 9 c 9 8 8 9 9 & .               O - - ",
"- -       X     % 4 9 w.p.F.XX+X{.K.J L 9 . 3 8 8 f C 5._.}.*X3X3X3X;X7.r 8 9 5 X X     3 9 ,.s w w e e w > & + #   o .   = - - ",
"- -               X k q.D.+X+X+X^.t.h 8 4 . X 1 4 F -.^.}. X<X3X3X3XL.>.y 8 s &         % 8 8 f } } ] 9 9 s u > @ . & $ @ = - - ",
"- -       . %   # 5 A q.k.).).N.@.g # % #   . 3 A q.j.).{.$X3X3X3X&Xi.[ u 8 s 6 % X       % w } } } ] r 9 8 5 + - = - - = + - - ",
"- - O   . . . . 3 9 J e.w.s.s.@.` %         # p h.d.D.{.{.@X1X3X1XL.9.[ r 8 9 e 5 % # + # e ] } } } } ` f y 2 - - - - - = = - - ",
"- - O         . 5 v R R ! w.q.S # .     . X 3 v t.a.K.#X{.{.-X3X&Xh.@.` 8 8 9 8 4 7 ` ' ' ` } } } } } } ` y $ - - - : - - - - - ",
"- - @ o       . 8 M R ! ! w.s.S . . *   * # 4 N w.d.^.+X{.{.@X:XL.%.[ u e u 5 1 7 } } } } } } X.o... .y 4 2 = - , , , - = - - - ",
"- - - @         2 M ! Q ! w.s.A             1 M w.j.).}.{.{.+XXXi.l r i 9 # X 2 ' } } } } } X.J ~ T I 9   # ; - - = = - - - - - ",
"- - - O         3 E Q ~ R -.u.l       # s     z y.A.{.}.+X+X.X2.s 8 i i #     & } } } } o.Q J ! T T P i # # + $ & + & = = - - - ",
"- - O o         5 E ~ T R -.:.w # .     %     # K D.{.}.{.Y.H 8 8 8 i 1       $ ' } } o.T T E E T ^ E x 1 .     .   .   O - - - ",
"- -           X z R T T Q ) *.e % . * %         n S.}.{.+XU.8 9 9 9 9 %   X # # ` }  .T T T T ! R R ^ 9                 O - - - ",
"- -         X 9 L T R c.t.Q j 4 % . % X         v 4.~.`.`.OXa 9 9 8 9 9 5 % 3 3 w [  .T ~ E Q -.n n ! M X                 O - - ",
"- -       % 3 0 I T <.A.s.K 9 8 % % 1 X     .   1 L 1.h.g.E.3.5 9 r y r 9 8 % 3 # w  .T E E ! b 1 . 5 0 X                   - - ",
"- -     X % 4 9 E E ! c.A.8.s 8 8 h 8 3     *     r U ! <.2.&.u 9 f d ] g f 4 * X X s V ^ ~ v X         . .   X             - - ",
"- -     X 1 8 0 I ^ R / F.s.K 8 8 3 8 *     # #   w X.T T H [ r r ] [ [ } | { s # # i M T Q e     X &   + #   X           O - - ",
"- - o     1 9 9 z L E M A A 9 . .   & % X   X X   ` U T ^ *.s 9 ] } | $.9.9.p.8.s % m T T ! G #     .     .               @ - - ",
"- - O o   # 4 8 & & # 4 1 O O o   @ @ + .       $ ] U T R H 9 t [ [ } 9.s.q.s.j.j 4 9 E ! T ! b 1 o O                   o = - - ",
"- - @ O O O + + O @ = = = = - = = = = + + #     > X.R R ) b 9 y } } @.0.q.D.(.`.J.B 9 v.c.T T T V @ O O o               o - - - ",
"- - = = = : = = = = - - - - - @   o o & X #   X ` O.T R b 9 8 r [ } @.q.j./.}.[.).H.v.[.m.E T T V : - @                 O - - - ",
"- - - - - - - - - = - : - - - O       X   #   & } } H U y e 9 9 f } | 0.A.[.U.l._ Z.).U./ ^ U ^ M $ = O       +           @ - - ",
"- - - - - - - - - : - - - - - +       X > .   & ` }  .X.[ Z r 9 9 f | u.s.H.1.6.~ R z.<.P ^ ^ ^ x   O                       - - ",
"- - - - - - - - - ; = = - - @     .   $ ..o   # 2 y ` +.} o.Z 9 8 t @.u.q.t.^ 1./ V./ T ^ ^ ^ L 1   O                     O - - ",
"- : - - - - - - - - - - - = o   # %     .     % 1 1 r ` } } Z 9 9 f [ $.a.p.! R T 2.^ ^ ^ P x 1   O = O                 O @ - - ",
"- - - - - : - - - - - - = @ o   % %       * # X # # X % w f r 9 9 g } $.0.w.=.^ 4.~ T ~ m 1     o = @ O               = = - - - ",
"- - - - - - - - - - - - = O o             . .       . % % 9 9 8 r [ $.u.a.w.) R / T T T 5       O @     X +           = - - - - ",
"- - - - - - - - - - - - - @ O o                       1 5 5 4 8 f +.y.a.w.J P P P L L m 1       @ O                 O - - - - - ",
"- - - - - - : - - - - - - - = =             X     # % 9 8 3 3 s  .o.*.G b 1 1 1 1 # 1 4 o       = O             O O @ - - - - - ",
"- - - - - - - - - - - - - - - - - O o     . * 3 # % 5 9 9 9 i a  .` 4 1 #     o o X             o = O           @ - - - - - - - ",
"- - < : - - - - - = = - - - - - = @ o     % 8 9 4 5 8 9 9 y 7 p y > .   r X   $ o         o     O - = o       O - - - - - - - - ",
"- - < - - - - - - @ O @ - - - - - @ O   # 8 9 8 8 9 8 9 9 5 . . .       # .     # 1     1 1     @ - @ o   O @ - - - - = = - - - ",
"- - - - - - - - - = = @ - - - - - - = @ . % % X X 4 9 8 1 %                 O O                 = - = O O = - = = = @ @ = - - - ",
"- - - - - - - - - - - - - - - - - - - @         . . % .                 o O O = - = O $     o = - = - = = - - - - = @ O = - - - ",
"- - - - - - - - - - - - - - - - - - - O   o       .   o o           O @ = - - - - - = @ O   o = - - - - = = - - - = = = - - - - ",
"- - - - - - - - - - - - - - - - = = = = O O @ = = - @ @ O           O @ - , , - - - - - @ O @ = - - - - - = - - - - - - - - - - ",
"- - - - - - - - - - - - - - - - - - - - - - - - - - - - - - - - - - - - - - - - - - - - - - - - - - - - - - - - - - - - - - - - "
};
